<svg width="150" height="150" viewBox="0 0 150 150" fill="none" xmlns="http://www.w3.org/2000/svg">
<path d="M144.543 23.7393H5.45684C2.44453 23.7393 0 26.1808 0 29.1961V97.3174L5.30244 100.631H144.697L150 97.3174V29.1961C150 26.1808 147.555 23.7393 144.543 23.7393V23.7393Z" fill="#2B3890"/>
<path d="M144.543 23.7393H139.004C142.016 23.7393 144.461 26.1808 144.461 29.1961V100.631H144.697L150 97.3174V29.1961C150 26.1808 147.555 23.7393 144.543 23.7393V23.7393Z" fill="#242E7A"/>
<path d="M150 97.3177V116.335C150 119.35 147.555 121.795 144.543 121.795H5.45684C2.44453 121.794 0 119.35 0 116.334V97.3174H150V97.3177Z" fill="#DAE7EF"/>
<path d="M144.461 97.3174V116.334C144.461 119.35 142.016 121.794 139.004 121.794H144.543C147.555 121.794 150 119.35 150 116.334V97.3174H144.461Z" fill="#C1D5E4"/>
<path d="M8.45117 97.319V33.1372C8.45117 32.6137 8.87539 32.1895 9.39893 32.1895H140.602C141.126 32.1895 141.55 32.6137 141.55 33.1372V97.3193H8.45117V97.319Z" fill="#B1E4F9"/>
<path d="M135.637 32.1895V97.319H141.549V33.1372C141.549 32.6137 141.125 32.1895 140.602 32.1895H135.637Z" fill="#90D8F9"/>
<path d="M77.821 111.982H72.179C70.8393 111.982 69.7529 110.896 69.7529 109.556C69.7529 108.216 70.839 107.13 72.179 107.13H77.821C79.161 107.13 80.2471 108.216 80.2471 109.556C80.2468 110.896 79.161 111.982 77.821 111.982Z" fill="#242E7A"/>
<path d="M104.817 150H45.183C44.4848 150 43.9994 149.306 44.2384 148.65L45.601 144.916C46.2336 143.183 48.1891 141.995 50.4087 141.995H99.5914C101.811 141.995 103.766 143.183 104.399 144.916L105.762 148.65C106.001 149.306 105.515 150 104.817 150V150Z" fill="#DAE7EF"/>
<path d="M88.6371 121.794H61.3629C63.8719 129.723 61.5888 136.859 54.5127 141.995H95.4873C88.4115 136.859 86.1281 129.723 88.6371 121.794Z" fill="#C1D5E4"/>
<path d="M61.3633 121.794C61.9926 123.782 62.3201 125.721 62.3465 127.591H87.6546C87.681 125.721 88.0085 123.783 88.6378 121.794H61.3633Z" fill="#98B9D3"/>
<path d="M74.9968 34.1242C84.42 34.1242 92.059 26.4853 92.059 17.0621C92.059 7.63897 84.42 0 74.9968 0C65.5736 0 57.9346 7.63897 57.9346 17.0621C57.9346 26.4853 65.5736 34.1242 74.9968 34.1242Z" fill="#DD5CA2"/>
<path d="M74.9972 0C73.8024 0 72.637 0.123925 71.5117 0.35742C79.2631 1.9664 85.0885 8.83355 85.0885 17.0621C85.0885 25.2907 79.2631 32.1575 71.5117 33.7668C72.637 34.0003 73.8024 34.1242 74.9972 34.1242C84.4202 34.1242 92.0594 26.4854 92.0594 17.0621C92.0594 7.63883 84.4205 0 74.9972 0V0Z" fill="#DA4093"/>
<path d="M80.0967 16.6135L72.1244 9.07164C71.7307 8.69898 71.082 8.97818 71.082 9.52046V24.6042C71.082 25.1465 71.7307 25.4256 72.1244 25.053L80.0967 17.5111C80.3542 17.2674 80.3542 16.8572 80.0967 16.6135Z" fill="#F9F6F6"/>
<path d="M114.659 53.1486C124.082 53.1486 131.721 45.5097 131.721 36.0865C131.721 26.6634 124.082 19.0244 114.659 19.0244C105.236 19.0244 97.5967 26.6634 97.5967 36.0865C97.5967 45.5097 105.236 53.1486 114.659 53.1486Z" fill="#86F1A7"/>
<path d="M114.659 19.0244C113.465 19.0244 112.299 19.1483 111.174 19.3818C118.925 20.9908 124.751 27.858 124.751 36.0865C124.751 44.3151 118.925 51.182 111.174 52.7912C112.299 53.0247 113.465 53.1486 114.659 53.1486C124.082 53.1486 131.721 45.5098 131.721 36.0865C131.721 26.6632 124.082 19.0244 114.659 19.0244V19.0244Z" fill="#80E29D"/>
<path d="M122.787 30.0271C121.977 28.6868 120.084 25.5479 114.262 26.1784C113.113 26.3032 112.243 27.2732 112.243 28.429V35.5633C111.993 35.527 111.74 35.5021 111.48 35.5021C108.564 35.5021 106.191 37.8748 106.191 40.7913C106.191 43.7078 108.564 46.0805 111.48 46.0805C114.397 46.0805 116.77 43.7078 116.77 40.7913C116.77 40.636 116.759 40.4834 116.746 40.3313C116.76 40.2306 116.77 40.1283 116.77 40.0237V30.6968C118.042 30.9292 118.472 31.6399 118.926 32.3925C119.572 33.4624 120.957 33.7938 122.026 33.1472C123.097 32.5006 123.433 31.0973 122.787 30.0271V30.0271ZM111.481 41.5533C111.061 41.5533 110.719 41.2114 110.719 40.7913C110.719 40.3709 111.061 40.029 111.481 40.029C111.901 40.029 112.243 40.3709 112.243 40.7913C112.243 41.2114 111.901 41.5533 111.481 41.5533Z" fill="#FFE07D"/>
<path d="M97.5964 89.9494C107.02 89.9494 114.659 82.3105 114.659 72.8873C114.659 63.4642 107.02 55.8252 97.5964 55.8252C88.1732 55.8252 80.5342 63.4642 80.5342 72.8873C80.5342 82.3105 88.1732 89.9494 97.5964 89.9494Z" fill="#80B4FB"/>
<path d="M114.659 72.8873C114.659 63.4643 107.02 55.8252 97.5968 55.8252C96.4021 55.8252 95.2366 55.9491 94.1113 56.1826C101.863 57.7916 107.688 64.6587 107.688 72.8873C107.688 81.1159 101.863 87.9827 94.1113 89.592C95.2366 89.8255 96.4021 89.9494 97.5968 89.9494C107.02 89.9494 114.659 82.3103 114.659 72.8873V72.8873Z" fill="#61A2F9"/>
<path d="M94.209 70.1481C94.1407 70.0544 94.0317 69.999 93.916 69.999C93.8 69.999 93.6913 70.0544 93.623 70.1481L87.9172 77.9812C87.8369 78.0914 87.8252 78.2376 87.887 78.3588C87.9488 78.4804 88.0736 78.5569 88.2102 78.5569H100.334L94.209 70.1481Z" fill="#242E7A"/>
<path d="M101.571 70.1481C101.502 70.0544 101.393 69.999 101.278 69.999C101.162 69.999 101.053 70.0544 100.985 70.1481L94.8594 78.5572H106.984C107.12 78.5572 107.245 78.4807 107.307 78.3591C107.369 78.2376 107.357 78.0917 107.277 77.9815L101.571 70.1481Z" fill="#2B3890"/>
<path d="M104.386 67.082C103.135 67.082 102.122 66.0686 102.122 64.8185C102.122 63.5685 103.135 62.5469 104.386 62.5469C105.636 62.5469 106.649 63.5523 106.649 64.8024V64.8185C106.649 66.0686 105.636 67.082 104.386 67.082V67.082Z" fill="#FFE07D"/>
<path d="M35.3425 53.1486C44.7657 53.1486 52.4047 45.5097 52.4047 36.0865C52.4047 26.6634 44.7657 19.0244 35.3425 19.0244C25.9193 19.0244 18.2803 26.6634 18.2803 36.0865C18.2803 45.5097 25.9193 53.1486 35.3425 53.1486Z" fill="#F9F6F6"/>
<path d="M35.3419 19.0244C34.1472 19.0244 32.9817 19.1483 31.8564 19.3818C39.6078 20.9908 45.4332 27.858 45.4332 36.0865C45.4332 44.3151 39.6078 51.182 31.8564 52.7912C32.9817 53.0247 34.1472 53.1486 35.3419 53.1486C44.7649 53.1486 52.4041 45.5098 52.4041 36.0865C52.4041 26.6632 44.7649 19.0244 35.3419 19.0244V19.0244Z" fill="#DAE7EF"/>
<path d="M40.0364 31.9166H30.6482C29.3979 31.9166 28.3848 30.9032 28.3848 29.6531C28.3848 28.403 29.3981 27.3896 30.6482 27.3896H40.0364C41.2868 27.3896 42.2999 28.403 42.2999 29.6531C42.2999 30.9032 41.2865 31.9166 40.0364 31.9166Z" fill="#2B3890"/>
<path d="M40.0364 38.3511H30.6482C29.3979 38.3511 28.3848 37.3378 28.3848 36.0877C28.3848 34.8376 29.3981 33.8242 30.6482 33.8242H40.0364C41.2868 33.8242 42.2999 34.8376 42.2999 36.0877C42.2999 37.3375 41.2865 38.3511 40.0364 38.3511Z" fill="#2B3890"/>
<path d="M40.0364 44.7847H30.6482C29.3979 44.7847 28.3848 43.7714 28.3848 42.5213C28.3848 41.2712 29.3981 40.2578 30.6482 40.2578H40.0364C41.2868 40.2578 42.2999 41.2712 42.2999 42.5213C42.2999 43.7714 41.2865 44.7847 40.0364 44.7847Z" fill="#2B3890"/>
<path d="M52.404 89.9494C61.8272 89.9494 69.4662 82.3105 69.4662 72.8873C69.4662 63.4642 61.8272 55.8252 52.404 55.8252C42.9808 55.8252 35.3418 63.4642 35.3418 72.8873C35.3418 82.3105 42.9808 89.9494 52.404 89.9494Z" fill="#EAB14D"/>
<path d="M52.4044 55.8252C51.2097 55.8252 50.0442 55.9491 48.9189 56.1826C56.6703 57.7916 62.4957 64.6587 62.4957 72.8873C62.4957 81.1159 56.6703 87.9827 48.9189 89.592C50.0442 89.8255 51.2097 89.9494 52.4044 89.9494C61.8274 89.9494 69.4666 82.3106 69.4666 72.8873C69.4666 63.464 61.8274 55.8252 52.4044 55.8252V55.8252Z" fill="#E7A52E"/>
<path d="M59.8146 62.9121H44.9939C43.7436 62.9121 42.7305 63.9255 42.7305 65.1756V68.4132C42.7305 69.6632 43.7438 70.6766 44.9939 70.6766C46.2443 70.6766 47.2574 69.6632 47.2574 68.4132V67.4393H50.1405V80.5985C50.1405 81.8489 51.1539 82.862 52.404 82.862C53.6544 82.862 54.6675 81.8486 54.6675 80.5985V67.4393H57.5506V68.4132C57.5506 69.6632 58.564 70.6766 59.8141 70.6766C61.0644 70.6766 62.0775 69.6632 62.0775 68.4132V65.1756C62.0781 63.9255 61.0647 62.9121 59.8146 62.9121V62.9121Z" fill="#242E7A"/>
</svg>
