<svg width="100" height="100" viewBox="0 0 100 100" fill="none" xmlns="http://www.w3.org/2000/svg">
<path d="M100 93.3334V6.6666C100 2.98471 96.2691 0 91.6668 0H8.33325C3.73089 0 0 2.98471 0 6.6666V93.3332C0 97.0153 3.73089 100 8.33325 100H91.6665C96.2691 100 100 97.0153 100 93.3334V93.3334Z" fill="#E9EFFF"/>
<path d="M91.6665 0H85.8831C90.4847 0.000603622 94.2151 2.98511 94.2151 6.6666V93.3332C94.2151 97.0151 90.4842 99.9998 85.8818 99.9998H91.6665C96.2689 99.9998 99.9998 97.0151 99.9998 93.3332V6.6666C99.9998 2.98491 96.2689 0 91.6665 0V0Z" fill="#D3DCFB"/>
<path d="M8.33325 100H91.6665C96.2689 100 99.9997 97.0153 99.9997 93.3334V20H0V93.3334C0 97.0153 3.73089 100 8.33325 100V100Z" fill="#368DF6"/>
<path d="M16.5571 10.7739C17.0864 8.98257 15.7003 7.1872 13.4612 6.76377C11.2221 6.34034 8.97787 7.44921 8.44859 9.24049C7.9193 11.0318 9.30538 12.8271 11.5445 13.2506C13.7836 13.674 16.0278 12.5651 16.5571 10.7739Z" fill="#FD3D54"/>
<path d="M33.2708 10.5344C33.639 8.71738 32.0962 7.00558 29.8248 6.71103C27.5535 6.41647 25.4138 7.65069 25.0456 9.46775C24.6774 11.2848 26.2202 12.9966 28.4915 13.2912C30.7628 13.5857 32.9026 12.3515 33.2708 10.5344Z" fill="#89E56A"/>
<path d="M48.7722 12.3606C50.3992 11.059 50.3992 8.94877 48.7722 7.64719C47.1453 6.34562 44.5074 6.34561 42.8805 7.64719C41.2535 8.94877 41.2535 11.059 42.8805 12.3606C44.5074 13.6622 47.1453 13.6622 48.7722 12.3606Z" fill="#FFC55E"/>
<path d="M89.6544 53.3335H10.3451C9.23391 53.3335 8.33301 52.6128 8.33301 51.7238V34.9432C8.33301 34.0542 9.23391 33.3335 10.3451 33.3335H89.6542C90.7654 33.3335 91.6663 34.0542 91.6663 34.9432V51.7238C91.6665 52.6128 90.7656 53.3335 89.6544 53.3335Z" fill="#E9EFFF"/>
<path d="M89.6544 86.6665H10.3451C9.23391 86.6665 8.33301 85.9458 8.33301 85.0568V68.2762C8.33301 67.3872 9.23391 66.6665 10.3451 66.6665H89.6542C90.7654 66.6665 91.6663 67.3872 91.6663 68.2762V85.0568C91.6665 85.9458 90.7656 86.6665 89.6544 86.6665V86.6665Z" fill="#E9EFFF"/>
<path d="M94.2151 20V93.3334C94.2151 97.0153 90.4842 100 85.8818 100H91.6665C96.2689 100 99.9998 97.0153 99.9998 93.3334V20H94.2151Z" fill="#336FE7"/>
<path d="M10.3451 33.3335C9.23391 33.3335 8.33301 34.0542 8.33301 34.9432V51.7238C8.33301 52.6128 9.23391 53.3335 10.3451 53.3335H33.333V33.3335H10.3451Z" fill="#65E1A3"/>
<path d="M22.9169 44.7906H18.7504C17.7444 44.7906 16.9287 44.1381 16.9287 43.333C16.9287 42.528 17.7444 41.8755 18.7504 41.8755H22.9169C23.9229 41.8755 24.7386 42.528 24.7386 43.333C24.7386 44.1381 23.9229 44.7906 22.9169 44.7906Z" fill="#57CF97"/>
<path d="M49.9999 41.4576H41.6664C40.6604 41.4576 39.8447 40.8051 39.8447 40C39.8447 39.195 40.6604 38.5425 41.6664 38.5425H49.9999C51.0059 38.5425 51.8216 39.195 51.8216 40C51.8216 40.8049 51.0059 41.4576 49.9999 41.4576Z" fill="#57CF97"/>
<path d="M66.6664 48.1241H41.6664C40.6604 48.1241 39.8447 47.4716 39.8447 46.6665C39.8447 45.8615 40.6604 45.209 41.6664 45.209H66.6664C67.6724 45.209 68.4881 45.8615 68.4881 46.6665C68.4881 47.4716 67.6724 48.1241 66.6664 48.1241Z" fill="#5B7FA0"/>
<path d="M83.3336 48.1241H75.0004C73.9943 48.1241 73.1787 47.4716 73.1787 46.6665C73.1787 45.8615 73.9943 45.209 75.0004 45.209H83.3336C84.3397 45.209 85.1553 45.8615 85.1553 46.6665C85.1553 47.4716 84.3397 48.1241 83.3336 48.1241Z" fill="#5B7FA0"/>
<path d="M89.6548 33.3335H83.8701C84.9813 33.3335 85.8822 34.0542 85.8822 34.9432V51.7238C85.8822 52.6128 84.9813 53.3335 83.8701 53.3335H89.6548C90.766 53.3335 91.6669 52.6128 91.6669 51.7238V34.9432C91.6669 34.054 90.766 33.3335 89.6548 33.3335Z" fill="#D3DCFB"/>
<path d="M10.3451 66.6665C9.23391 66.6665 8.33301 67.3872 8.33301 68.2762V85.0568C8.33301 85.9458 9.23391 86.6665 10.3451 86.6665H33.333V66.6665H10.3451Z" fill="#65E1A3"/>
<path d="M22.9169 78.1241H18.7504C17.7444 78.1241 16.9287 77.4716 16.9287 76.6665C16.9287 75.8617 17.7444 75.209 18.7504 75.209H22.9169C23.9229 75.209 24.7386 75.8615 24.7386 76.6665C24.7388 77.4716 23.9229 78.1241 22.9169 78.1241V78.1241Z" fill="#57CF97"/>
<path d="M49.9999 74.7906H41.6664C40.6604 74.7906 39.8447 74.1381 39.8447 73.333C39.8447 72.528 40.6604 71.8755 41.6664 71.8755H49.9999C51.0059 71.8755 51.8216 72.528 51.8216 73.333C51.8216 74.1381 51.0059 74.7906 49.9999 74.7906V74.7906Z" fill="#57CF97"/>
<path d="M66.6664 81.4576H41.6664C40.6604 81.4576 39.8447 80.8051 39.8447 80C39.8447 79.195 40.6604 78.5425 41.6664 78.5425H66.6664C67.6724 78.5425 68.4881 79.195 68.4881 80C68.4881 80.8051 67.6724 81.4576 66.6664 81.4576V81.4576Z" fill="#5B7FA0"/>
<path d="M83.3336 81.4576H75.0004C73.9943 81.4576 73.1787 80.8051 73.1787 80C73.1787 79.195 73.9943 78.5425 75.0004 78.5425H83.3336C84.3397 78.5425 85.1553 79.195 85.1553 80C85.1553 80.8051 84.3397 81.4576 83.3336 81.4576V81.4576Z" fill="#5B7FA0"/>
<path d="M89.6548 66.6665H83.8701C84.9813 66.6665 85.8822 67.3872 85.8822 68.2762V85.0568C85.8822 85.9458 84.9813 86.6665 83.8701 86.6665H89.6548C90.766 86.6665 91.6669 85.9458 91.6669 85.0568V68.2762C91.6669 67.3872 90.766 66.6665 89.6548 66.6665V66.6665Z" fill="#D3DCFB"/>
<path d="M78.4361 80.713L68.8531 80.016C67.6132 79.9258 66.5744 80.7568 66.6871 81.7488L67.5583 89.4152C67.7115 90.7619 69.7583 91.3546 70.9534 90.3985C71.7321 89.7757 72.9942 89.7757 73.7729 90.3985L76.846 92.857C77.6247 93.4798 78.8868 93.4798 79.6655 92.857L82.7387 90.3985C83.5171 89.7757 83.5171 88.7659 82.7387 88.143L79.6655 85.6844C78.887 85.0617 78.887 84.0518 79.6655 83.4289C80.8604 82.4729 80.1194 80.8353 78.4361 80.713V80.713Z" fill="#D3DCFB"/>
</svg>
