<svg width="100" height="100" viewBox="0 0 100 100" fill="none" xmlns="http://www.w3.org/2000/svg">
<path d="M30.9343 46.8147C30.396 46.8147 29.8751 46.5253 29.6035 46.0167C29.2106 45.2811 29.4873 44.3657 30.2215 43.9719L45.9472 35.541L61.5818 25.7467C61.5902 25.7413 61.5989 25.736 61.6075 25.731L74.9694 17.7279C75.6844 17.2999 76.6102 17.5333 77.0375 18.2494C77.4649 18.9654 77.2319 19.8929 76.5171 20.3211L63.1679 28.3164L47.503 38.1296C47.4742 38.1475 47.4449 38.1647 47.4149 38.1808L31.6444 46.6358C31.418 46.7571 31.1743 46.8147 30.9343 46.8147V46.8147Z" fill="#C8EFFE"/>
<path d="M75.7411 84.9966C75.4753 84.9966 75.2061 84.9261 74.962 84.7785L60.481 76.0034C60.4746 75.9993 60.4684 75.9955 60.4619 75.9915L45.9032 66.8711C45.8837 66.8588 45.8644 66.8461 45.8453 66.833L32.3598 57.4962C31.6746 57.0218 31.5031 56.081 31.9766 55.3946C32.4501 54.7084 33.3894 54.5363 34.0744 55.0107L47.5313 64.3278L62.0511 73.4238L76.5228 82.1933C77.2353 82.6251 77.4635 83.5539 77.0327 84.2677C76.7494 84.737 76.2513 84.9966 75.7411 84.9966V84.9966Z" fill="#C8EFFE"/>
<path d="M80.4571 19.2939C79.6244 19.2939 78.9492 19.9703 78.9492 20.8046V75.3185C78.9492 76.1527 79.6244 76.8291 80.4571 76.8291C81.2899 76.8291 81.9651 76.1527 81.9651 75.3185V20.8046C81.9651 19.9703 81.2899 19.2939 80.4571 19.2939V19.2939Z" fill="#C8EFFE"/>
<path d="M25.5241 25.5518C11.43 25.5518 0.00195312 37.0003 0.00195312 51.1196C0.00195312 60.6313 5.18722 68.9289 12.8795 73.3329L14.613 72.3848L36.4735 72.0666L38.1373 73.351C45.8472 68.9519 51.0463 60.6446 51.0463 51.1196C51.0463 37.0003 39.6203 25.5518 25.5241 25.5518V25.5518Z" fill="#98BCE5"/>
<path d="M17.4755 66.1316C14.418 61.9162 12.6143 56.7291 12.6143 51.1196C12.6143 39.1808 20.7853 29.1525 31.8298 26.3395C29.8123 25.8257 27.6992 25.5518 25.5222 25.5518C11.4281 25.5516 0 37.0001 0 51.1194C0 60.6307 5.18486 68.9281 12.8767 73.3323L17.4755 66.1316Z" fill="#7BACDF"/>
<path d="M25.5237 70.6445C36.288 70.6445 45.0142 61.9027 45.0142 51.1191C45.0142 40.3356 36.288 31.5938 25.5237 31.5938C14.7594 31.5938 6.0332 40.3356 6.0332 51.1191C6.0332 61.9027 14.7594 70.6445 25.5237 70.6445Z" fill="#5F99D7"/>
<path d="M21.0745 32.1074C12.4642 34.1292 6.0332 41.8856 6.0332 51.119C6.0332 60.3527 12.4648 68.1095 21.0757 70.1307C15.8822 65.4508 12.6152 58.6673 12.6152 51.1182C12.6152 43.5707 15.8816 36.7875 21.0745 32.1074V32.1074Z" fill="#3C87D0"/>
<path d="M38.0413 67.3825C38.0413 65.9746 37.416 64.6392 36.3343 63.7389L29.1666 57.7769L27.683 56.2534H23.3597L21.8381 57.7769L14.6704 63.7389C13.5907 64.6392 12.9634 65.9746 12.9634 67.3825L12.877 73.3324C16.6046 75.4654 20.9233 76.686 25.5234 76.686C30.1116 76.686 34.4162 75.4734 38.1378 73.3505L38.0413 67.3825Z" fill="#ADE194"/>
<path d="M30.2031 58.6398L29.1656 57.7769L27.682 56.2534H23.3587L21.8371 57.7769L14.6694 63.7389C13.5897 64.6392 12.9624 65.9746 12.9624 67.3825L12.876 73.3324C14.3889 74.1981 16.0006 74.9105 17.6877 75.4551L17.7703 69.7689C17.7703 68.361 18.3976 67.0256 19.4773 66.1253L21.3757 64.5462C22.1835 63.8742 23.2459 63.5616 24.2781 63.7534C24.6754 63.8271 25.0846 63.8658 25.5024 63.8658C27.2894 63.8658 28.9674 63.1685 30.2244 61.9054C30.8288 61.3001 31.3021 60.5966 31.633 59.8294L30.2031 58.6398Z" fill="#97DA7B"/>
<path d="M29.1664 51.1023V57.175C29.1664 57.3784 29.1503 57.5758 29.1182 57.7692C28.9915 58.5447 28.6236 59.2375 28.0928 59.7693C27.4313 60.4339 26.5145 60.8448 25.5032 60.8448C23.6816 60.8448 22.1696 59.5135 21.8861 57.7692C21.854 57.5758 21.8379 57.3784 21.8379 57.175V51.0822L21.9143 50.917C23.0101 51.4306 24.2325 51.7186 25.5233 51.7186C26.798 51.7186 28.0063 51.4387 29.09 50.9371L29.1664 51.1023Z" fill="#FED2A4"/>
<path d="M30.5955 33.3555H20.8945L17.8847 32.3645C17.4484 32.2215 16.998 32.5478 16.998 33.0091V41.3679L19.8941 44.4733H32.4692L34.0497 41.3679V36.8159C34.0497 34.9044 32.5036 33.3555 30.5955 33.3555Z" fill="#A79BA7"/>
<path d="M21.8375 36.8918C21.8375 36.4305 22.2879 36.1042 22.7242 36.2473L25.734 37.2382H34.0497V36.8159C34.0497 34.9044 32.5036 33.3555 30.5955 33.3555H20.8945L17.8847 32.3645C17.4484 32.2215 16.998 32.5478 16.998 33.0091V41.3679L19.8941 44.4733H21.8375V36.8918Z" fill="#918291"/>
<path d="M34.0497 41.3677V46.8039C34.0497 50.2441 32.017 53.211 29.0896 54.5625C28.0059 55.064 26.7976 55.344 25.5229 55.344C24.2321 55.344 23.0097 55.056 21.9139 54.5424C19.0086 53.1808 16.998 50.228 16.998 46.8039V41.3677H34.0497Z" fill="#FED2A4"/>
<path d="M26.7533 54.5424C23.8481 53.1808 21.8375 50.228 21.8375 46.8039V41.3677H16.998V46.8039C16.998 50.228 19.0086 53.1808 21.9139 54.5424C23.0097 55.056 24.2321 55.344 25.5229 55.344C26.3645 55.344 27.1762 55.2197 27.943 54.9925C27.5328 54.8709 27.1349 54.7214 26.7533 54.5424Z" fill="#FFBD86"/>
<path d="M80.4568 0C69.664 0 60.916 8.76365 60.916 19.5777C60.916 26.0928 64.0933 31.8629 68.9794 35.4214L70.7025 33.8068L89.9643 34.1067L91.9319 35.4244C96.8206 31.8664 99.9997 26.0948 99.9997 19.5779C99.9995 8.76365 91.2515 0 80.4568 0V0Z" fill="#98BCE5"/>
<path d="M74.4265 28.9529C72.9069 26.1685 72.0406 22.9752 72.0406 19.5777C72.0406 10.7003 77.9364 3.20615 86.0185 0.806071C84.255 0.282387 82.388 0 80.4548 0C69.6621 0 60.9141 8.76365 60.9141 19.5777C60.9141 26.0928 64.0912 31.8629 68.9773 35.4212L74.4265 28.9529Z" fill="#7BACDF"/>
<path d="M80.4553 33.1094C73.0064 33.1094 66.9463 27.0385 66.9463 19.5762C66.9463 12.1129 73.0064 6.04102 80.4553 6.04102C87.9053 6.04102 93.9664 12.1129 93.9664 19.5762C93.9666 27.0385 87.9055 33.1094 80.4553 33.1094Z" fill="#5F99D7"/>
<path d="M77.0661 32.6778C73.9435 29.2086 72.0411 24.6159 72.0411 19.5762C72.0411 14.5356 73.9435 9.94206 77.0663 6.47266C71.2523 7.98308 66.9463 13.2852 66.9463 19.5762C66.9465 25.8663 71.2523 31.1676 77.0661 32.6778Z" fill="#3C87D0"/>
<path d="M80.4561 22.9019C86.7894 22.9019 91.9224 28.044 91.9224 34.3887L91.9322 35.4237C88.6791 37.8508 84.8269 39.1522 80.4561 39.1522C76.0871 39.1522 72.2327 37.8484 68.9775 35.4213L68.9898 34.3887C68.9898 31.2163 70.2725 28.3441 72.3495 26.2655C74.4244 24.1869 77.2894 22.9019 80.4561 22.9019V22.9019Z" fill="#F37C7C"/>
<path d="M80.4562 6.04102C85.1047 6.04102 88.8725 9.81557 88.8725 14.4703C88.8725 19.1271 85.1047 22.9016 80.4562 22.9016C75.8098 22.9016 72.042 19.1271 72.042 14.4703C72.042 9.81557 75.8098 6.04102 80.4562 6.04102V6.04102Z" fill="#FFE5C2"/>
<path d="M73.4798 37.3424C73.4798 34.1701 74.7626 31.2979 76.8395 29.2193C78.9144 27.1407 81.7794 25.8556 84.9461 25.8556C86.303 25.8556 87.6071 26.0921 88.8152 26.5255C86.7238 24.2955 83.752 22.9019 80.4561 22.9019C77.2894 22.9019 74.4244 24.1869 72.3495 26.2655C70.2725 28.3441 68.9898 31.2163 68.9898 34.3887L68.9775 35.4213C70.3687 36.4584 71.871 37.2903 73.4742 37.9032L73.4798 37.3424Z" fill="#EE6161"/>
<path d="M77.8966 14.2467C77.8966 10.7381 80.0429 7.7299 83.0871 6.46097C82.2605 6.18926 81.3735 6.04102 80.4562 6.04102C75.8098 6.04102 72.042 9.81557 72.042 14.4703C72.042 19.1271 75.8098 22.9016 80.4562 22.9016C81.6009 22.9016 82.692 22.672 83.6866 22.2575C80.3255 21.1523 77.8966 17.9846 77.8966 14.2467V14.2467Z" fill="#FED2A4"/>
<path d="M80.4577 60.8447C69.665 60.8447 60.917 69.6104 60.917 80.4225C60.917 86.9435 64.0999 92.719 68.9937 96.277L70.8565 95.4786L90.7567 95.8826L91.9228 96.2774C96.8174 92.7194 100 86.9435 100 80.4223C100 69.6104 91.2525 60.8447 80.4577 60.8447V60.8447Z" fill="#98BCE5"/>
<path d="M73.9886 89.8314C72.4588 87.0393 71.5866 83.8344 71.5866 80.4244C71.5866 71.4656 77.5928 63.912 85.7915 61.5857C84.0951 61.1045 82.3051 60.8467 80.4548 60.8467C69.6621 60.8467 60.9141 69.6123 60.9141 80.4244C60.9141 86.9451 64.0966 92.7203 68.9897 96.2783L73.9886 89.8314Z" fill="#7BACDF"/>
<path d="M80.4553 93.9576C73.0064 93.9576 66.9463 87.8857 66.9463 80.4224C66.9463 72.9591 73.0064 66.8872 80.4553 66.8872C87.9053 66.8872 93.9664 72.9591 93.9664 80.4224C93.9664 87.8857 87.9055 93.9576 80.4553 93.9576Z" fill="#5F99D7"/>
<path d="M76.4605 93.353C73.4289 89.9039 71.5879 85.3793 71.5879 80.4224C71.5879 75.4655 73.4231 70.9427 76.4547 67.4937C70.9503 69.2047 66.9473 74.3523 66.9473 80.4224C66.9473 86.4925 70.9561 91.6419 76.4605 93.353V93.353Z" fill="#3C87D0"/>
<path d="M80.4567 83.7496C85.1045 83.7496 88.8723 79.975 88.8723 75.3189C88.8723 70.6627 85.1045 66.8882 80.4567 66.8882C75.8088 66.8882 72.041 70.6627 72.041 75.3189C72.041 79.975 75.8088 83.7496 80.4567 83.7496Z" fill="#FFE5C2"/>
<path d="M77.2044 75.3189C77.2044 71.5653 79.6589 68.3859 83.0435 67.2938C82.2298 67.0314 81.3576 66.8882 80.4567 66.8882C75.8088 66.8882 72.041 70.6627 72.041 75.3189C72.041 79.975 75.8088 83.7496 80.4567 83.7496C81.3576 83.7496 82.2296 83.6064 83.0435 83.3439C79.6591 82.2519 77.2044 79.0725 77.2044 75.3189V75.3189Z" fill="#FED2A4"/>
<path d="M91.9218 96.2776C88.7029 98.6201 84.7401 99.9998 80.4555 99.9998C76.171 99.9998 72.2102 98.6181 68.9893 96.2776V95.2363C68.9893 92.064 70.272 89.1918 72.3489 87.1132C74.4238 85.0345 77.2889 83.7495 80.4555 83.7495C86.7888 83.7495 91.9218 88.8917 91.9218 95.2363V96.2776Z" fill="#FEE97D"/>
<path d="M73.3534 98.093C73.3534 94.9207 74.6361 92.0485 76.7131 89.9699C78.788 87.8912 81.653 86.6062 84.8197 86.6062C86.1949 86.6062 87.5185 86.8501 88.7403 87.2946C86.6531 85.1117 83.7115 83.7495 80.4555 83.7495C77.2889 83.7495 74.4238 85.0345 72.3489 87.1132C70.272 89.1918 68.9893 92.064 68.9893 95.2363V96.2776C70.3259 97.2489 71.794 98.0566 73.3558 98.6675L73.3534 98.093Z" fill="#FEE45A"/>
</svg>
