<svg width="100" height="100" viewBox="0 0 100 100" fill="none" xmlns="http://www.w3.org/2000/svg">
<path d="M7.93595 7.94873C4.36192 7.94873 1.46484 10.8456 1.46484 14.4189V72.6536C1.46484 76.2271 4.36212 79.1238 7.93595 79.1238H92.0635C95.6373 79.1238 98.5346 76.2269 98.5346 72.6536V14.4191C98.5346 10.8456 95.6373 7.94893 92.0635 7.94893H7.93595V7.94873Z" fill="#5B7FA0"/>
<path d="M92.0635 7.94873H87.5713C91.1453 7.94873 94.0426 10.8456 94.0426 14.4189V72.6536C94.0426 76.2271 91.1453 79.1238 87.5713 79.1238H92.0635C95.6375 79.1238 98.5348 76.2269 98.5348 72.6536V14.4191C98.5346 10.8456 95.6373 7.94873 92.0635 7.94873V7.94873Z" fill="#4A6F99"/>
<path d="M63.7516 92.0645L62.1338 79.1243V77.5425H37.866V79.1243L36.248 92.0645V93.8812H63.7516V92.0645Z" fill="#BEC8F7"/>
<path d="M7.93652 66.1834V16.0375C7.93652 15.144 8.66074 14.4199 9.5543 14.4199H90.4467C91.3402 14.4199 92.0644 15.1442 92.0644 16.0375V66.1834H7.93652Z" fill="#77DFFF"/>
<path d="M90.4457 14.4199H85.9531C86.8467 14.4199 87.5709 15.1442 87.5709 16.0375V66.1834H92.0635V16.0375C92.0635 15.144 91.3393 14.4199 90.4457 14.4199V14.4199Z" fill="#69CDFF"/>
<path d="M71.0876 92.0649H28.9131C28.0502 92.0649 27.3506 92.7645 27.3506 93.6272V96.9729C27.3506 97.8356 28.0502 98.5351 28.9131 98.5351H71.0876C71.9505 98.5351 72.6501 97.8356 72.6501 96.9729V93.6272C72.6501 92.7645 71.9505 92.0649 71.0876 92.0649Z" fill="#E9EFFF"/>
<path d="M71.0869 92.0649H66.5947C67.4576 92.0649 68.1572 92.7645 68.1572 93.6272V96.9729C68.1572 97.8356 67.4576 98.5351 66.5947 98.5351H71.0869C71.9498 98.5351 72.6494 97.8356 72.6494 96.9729V93.6272C72.6494 92.7645 71.9498 92.0649 71.0869 92.0649Z" fill="#D3DCFB"/>
<path d="M98.5346 72.654V66.1836H1.46484V72.654C1.46484 76.2275 4.36212 79.1242 7.93595 79.1242H92.0635C95.6373 79.1244 98.5346 76.2275 98.5346 72.654V72.654Z" fill="#E9EFFF"/>
<path d="M94.0426 72.654C94.0426 76.2275 91.1453 79.1242 87.5713 79.1242H92.0635C95.6375 79.1242 98.5348 76.2273 98.5348 72.654V66.1836H94.0426V72.654Z" fill="#D3DCFB"/>
<path d="M83.791 45.6851L85.2785 54.5865C85.4427 55.5725 84.6824 56.4701 83.6826 56.4701H77.7951C76.7952 56.4701 76.0349 55.5725 76.1991 54.5865L77.6867 45.6851H83.791Z" fill="#FFA438"/>
<path d="M69.4132 18.2886V41.9197C69.4132 43.7065 67.9645 45.1549 66.1774 45.1549H33.8207C32.0336 45.1549 30.585 43.7065 30.585 41.9197V18.2886H69.4132Z" fill="#336FE7"/>
<path d="M64.9213 18.2886V41.9197C64.9213 43.7063 63.4727 45.1549 61.6855 45.1549H66.1777C67.9649 45.1549 69.4135 43.7065 69.4135 41.9197V18.2886H64.9213Z" fill="#325BE3"/>
<path d="M33.8215 45.1549H66.1784C67.9655 45.1549 69.4141 43.7065 69.4141 41.9196V37.0586H30.5859V41.9196C30.5859 43.7065 32.0346 45.1549 33.8215 45.1549V45.1549Z" fill="#FFC55E"/>
<path d="M64.9213 41.9196C64.9213 43.7063 63.4727 45.1549 61.6855 45.1549H66.1777C67.9649 45.1549 69.4135 43.7065 69.4135 41.9196V37.0586H64.9213V41.9196Z" fill="#FFA438"/>
<path d="M48.3679 25.4425L19.4565 15.1183C18.0249 14.6071 18.0249 12.5827 19.4565 12.0715L48.3679 1.74752C49.4236 1.37062 50.5771 1.37062 51.6328 1.74752L80.5444 12.0717C81.976 12.5829 81.976 14.6073 80.5444 15.1185L51.633 25.4427C50.5773 25.8194 49.4236 25.8194 48.3679 25.4425V25.4425Z" fill="#368DF6"/>
<path d="M80.7393 46.7643C83.4198 46.7643 85.5928 44.5916 85.5928 41.9114C85.5928 39.2313 83.4198 37.0586 80.7393 37.0586C78.0587 37.0586 75.8857 39.2313 75.8857 41.9114C75.8857 44.5916 78.0587 46.7643 80.7393 46.7643Z" fill="#FFC55E"/>
<path d="M80.544 12.0708L51.6324 1.74669C50.5768 1.36959 49.4232 1.36959 48.3676 1.74669L47.7539 1.9658L76.0518 12.0708C77.4835 12.5821 77.4835 14.6064 76.0518 15.1177L47.7541 25.2225L48.3678 25.4416C49.4234 25.8185 50.577 25.8185 51.6326 25.4416L80.544 15.1175C81.9755 14.6062 81.9755 12.5819 80.544 12.0708V12.0708Z" fill="#336FE7"/>
<path d="M100 66.1834C100 66.1809 99.9996 66.1784 99.9996 66.1758V36.8248C99.9996 36.0158 99.3438 35.3602 98.5348 35.3602C97.7258 35.3602 97.0699 36.0158 97.0699 36.8248V64.7188H93.5287V16.0371C93.5287 14.3375 92.1457 12.9549 90.4461 12.9549H83.0156C82.8017 11.916 82.073 11.0612 81.0363 10.691L77.4587 9.41341H92.0635C94.824 9.41341 97.0697 11.659 97.0697 14.4192V30.8684C97.0697 31.6775 97.7256 32.3331 98.5346 32.3331C99.3436 32.3331 99.9994 31.6775 99.9994 30.8684V14.4192C99.9994 10.0438 96.4395 6.48413 92.0635 6.48413H69.4478C69.3921 6.48413 69.3374 6.48784 69.2833 6.49389L52.1251 0.366819C50.7546 -0.122175 49.2454 -0.122371 47.8751 0.366819L30.7247 6.49116C30.679 6.48686 30.6329 6.48413 30.586 6.48413H7.93615C3.56016 6.48413 0.000195313 10.0438 0.000195313 14.4192V66.1776C0.000195313 66.1795 0 66.1813 0 66.1832C0 66.1852 0.000195313 66.1869 0.000195313 66.1869V72.6538C0.000195313 77.029 3.56036 80.5886 7.93615 80.5886H14.7133C15.5223 80.5886 16.1782 79.9331 16.1782 79.124C16.1782 78.3149 15.5223 77.6594 14.7133 77.6594H7.93615C5.1756 77.6594 2.92989 75.414 2.92989 72.6538V67.6479H97.0701V72.6538C97.0701 75.414 94.8242 77.6594 92.0639 77.6594H20.5727C19.7637 77.6594 19.1079 78.3149 19.1079 79.124C19.1079 79.9331 19.7637 80.5886 20.5727 80.5886H36.2067L34.955 90.6005H27.3504C26.5415 90.6005 25.8856 91.2561 25.8856 92.0652V98.5354C25.8856 99.3444 26.5415 100 27.3504 100H72.65C73.4589 100 74.1148 99.3444 74.1148 98.5354V92.0652C74.1148 91.2561 73.4589 90.6005 72.65 90.6005H65.0452L63.7935 80.5886H92.0639C96.4398 80.5886 99.9998 77.029 99.9998 72.6538V66.1908C99.9996 66.1883 100 66.186 100 66.1834V66.1834ZM90.5992 16.0371V64.7186H9.4008V16.0371C9.4008 15.9527 9.46955 15.8842 9.55373 15.8842H17.9297C18.2229 16.1467 18.5711 16.3564 18.9635 16.4966L29.1212 20.1238V41.9194C29.1212 44.5109 31.2298 46.6192 33.8218 46.6192H66.1785C68.7704 46.6192 70.8791 44.5109 70.8791 41.9194V20.1236L79.0976 17.1889L79.2629 35.7697C76.489 36.4364 74.4209 38.9363 74.4209 41.9114C74.4209 43.5704 75.0646 45.0811 76.1144 46.2095L74.7548 54.3456C74.6056 55.241 74.8566 56.1518 75.4435 56.8447C76.0304 57.5374 76.8879 57.9346 77.7957 57.9346H83.6832C84.5912 57.9346 85.4484 57.5374 86.0353 56.8445C86.6222 56.1518 86.8732 55.2408 86.7238 54.3448L85.3644 46.2095C86.414 45.0811 87.0578 43.5704 87.0578 41.9114C87.0578 38.928 84.9783 36.4229 82.1929 35.7644L82.0166 15.9301C82.0345 15.9147 82.0533 15.9 82.0709 15.8844H90.4469C90.5305 15.8842 90.5992 15.9529 90.5992 16.0371V16.0371ZM47.8747 26.8204C48.5601 27.0652 49.2798 27.1877 49.9999 27.1875C50.7198 27.1875 51.4399 27.0652 52.1249 26.8206L67.9492 21.1698V35.5937H32.0507V21.17L47.8747 26.8204ZM32.0507 38.523H67.9492V41.9194C67.9492 42.8957 67.1548 43.6899 66.1783 43.6899H33.8216C32.8452 43.6899 32.0507 42.8957 32.0507 41.9194V38.523ZM83.8336 54.827C83.8365 54.8444 83.8453 54.8969 83.7994 54.951C83.7535 55.0051 83.7002 55.0051 83.6826 55.0051H77.7951C77.7775 55.0051 77.7242 55.0051 77.6783 54.951C77.6324 54.8969 77.6412 54.8442 77.6439 54.8276L78.7978 47.9225C79.4097 48.1205 80.0617 48.2287 80.7386 48.2287C81.4156 48.2287 82.0676 48.1205 82.6795 47.9225L83.8336 54.827ZM80.739 45.2994C78.8705 45.2994 77.3504 43.7795 77.3504 41.9112C77.3504 40.0429 78.8705 38.5228 80.739 38.5228C82.6074 38.5228 84.1277 40.0427 84.1277 41.9112C84.1275 43.7795 82.6074 45.2994 80.739 45.2994ZM48.8601 3.12561C49.2276 2.99438 49.6138 2.92877 49.9999 2.92877C50.386 2.92877 50.7722 2.99438 51.1396 3.12561L80.0511 13.4498C80.0939 13.465 80.1525 13.4861 80.1525 13.5937C80.1525 13.7015 80.0939 13.7224 80.0509 13.7376L51.1396 24.062C50.4046 24.3244 49.5952 24.3244 48.8603 24.062V24.0618L19.9489 13.738C19.9059 13.7226 19.8473 13.7015 19.8473 13.5939C19.8473 13.4861 19.9059 13.4652 19.9489 13.45L48.8601 3.12561ZM2.92989 14.4192C2.92989 11.659 5.17579 9.41341 7.93615 9.41341H22.5411L18.9635 10.691C17.9268 11.0612 17.1981 11.916 16.9842 12.9549H9.55373C7.85392 12.9549 6.47111 14.3375 6.47111 16.0371V64.7186H2.92989V14.4192ZM48.2292 80.5886H51.7708V84.1298H48.2292V80.5886ZM71.1849 97.0707H28.8153V93.5298H71.1851V97.0707H71.1849ZM62.0925 90.6005H37.9073L39.1591 80.5886H45.2993V85.5944C45.2993 86.4035 45.9552 87.059 46.7642 87.059H53.2355C54.0444 87.059 54.7003 86.4035 54.7003 85.5944V80.5886H60.8406L62.0925 90.6005Z" fill="black"/>
</svg>
