<svg width="261" height="45" viewBox="0 0 261 45" fill="none" xmlns="http://www.w3.org/2000/svg">
<path d="M55.131 35.198C53.415 35.198 51.765 34.923 50.181 34.373C48.619 33.823 47.409 33.097 46.551 32.195L47.508 30.314C48.344 31.15 49.455 31.832 50.841 32.36C52.227 32.866 53.657 33.119 55.131 33.119C57.199 33.119 58.75 32.745 59.784 31.997C60.818 31.227 61.335 30.237 61.335 29.027C61.335 28.103 61.049 27.366 60.477 26.816C59.927 26.266 59.245 25.848 58.431 25.562C57.617 25.254 56.484 24.924 55.032 24.572C53.294 24.132 51.908 23.714 50.874 23.318C49.84 22.9 48.949 22.273 48.201 21.437C47.475 20.601 47.112 19.468 47.112 18.038C47.112 16.872 47.42 15.816 48.036 14.87C48.652 13.902 49.598 13.132 50.874 12.56C52.15 11.988 53.734 11.702 55.626 11.702C56.946 11.702 58.233 11.889 59.487 12.263C60.763 12.615 61.863 13.11 62.787 13.748L61.962 15.695C60.994 15.057 59.96 14.584 58.86 14.276C57.76 13.946 56.682 13.781 55.626 13.781C53.602 13.781 52.073 14.177 51.039 14.969C50.027 15.739 49.521 16.74 49.521 17.972C49.521 18.896 49.796 19.644 50.346 20.216C50.918 20.766 51.622 21.195 52.458 21.503C53.316 21.789 54.46 22.108 55.89 22.46C57.584 22.878 58.948 23.296 59.982 23.714C61.038 24.11 61.929 24.726 62.655 25.562C63.381 26.376 63.744 27.487 63.744 28.895C63.744 30.061 63.425 31.128 62.787 32.096C62.171 33.042 61.214 33.801 59.916 34.373C58.618 34.923 57.023 35.198 55.131 35.198ZM77.1827 17.51C78.8107 17.51 80.2847 17.884 81.6047 18.632C82.9247 19.358 83.9587 20.392 84.7067 21.734C85.4547 23.076 85.8287 24.605 85.8287 26.321C85.8287 28.059 85.4547 29.599 84.7067 30.941C83.9587 32.283 82.9247 33.328 81.6047 34.076C80.3067 34.802 78.8327 35.165 77.1827 35.165C75.7747 35.165 74.4987 34.879 73.3547 34.307C72.2327 33.713 71.3087 32.855 70.5827 31.733V41.402H68.2397V17.642H70.4837V21.074C71.1877 19.93 72.1117 19.05 73.2557 18.434C74.4217 17.818 75.7307 17.51 77.1827 17.51ZM77.0177 33.086C78.2277 33.086 79.3277 32.811 80.3177 32.261C81.3077 31.689 82.0777 30.886 82.6277 29.852C83.1997 28.818 83.4857 27.641 83.4857 26.321C83.4857 25.001 83.1997 23.835 82.6277 22.823C82.0777 21.789 81.3077 20.986 80.3177 20.414C79.3277 19.842 78.2277 19.556 77.0177 19.556C75.7857 19.556 74.6747 19.842 73.6847 20.414C72.7167 20.986 71.9467 21.789 71.3747 22.823C70.8247 23.835 70.5497 25.001 70.5497 26.321C70.5497 27.641 70.8247 28.818 71.3747 29.852C71.9467 30.886 72.7167 31.689 73.6847 32.261C74.6747 32.811 75.7857 33.086 77.0177 33.086ZM105.389 27.047H90.869C91.001 28.851 91.694 30.314 92.948 31.436C94.202 32.536 95.786 33.086 97.7 33.086C98.778 33.086 99.768 32.899 100.67 32.525C101.572 32.129 102.353 31.557 103.013 30.809L104.333 32.327C103.563 33.251 102.595 33.955 101.429 34.439C100.285 34.923 99.02 35.165 97.634 35.165C95.852 35.165 94.268 34.791 92.882 34.043C91.518 33.273 90.451 32.217 89.681 30.875C88.911 29.533 88.526 28.015 88.526 26.321C88.526 24.627 88.889 23.109 89.615 21.767C90.363 20.425 91.375 19.38 92.651 18.632C93.949 17.884 95.401 17.51 97.007 17.51C98.613 17.51 100.054 17.884 101.33 18.632C102.606 19.38 103.607 20.425 104.333 21.767C105.059 23.087 105.422 24.605 105.422 26.321L105.389 27.047ZM97.007 19.523C95.335 19.523 93.927 20.062 92.783 21.14C91.661 22.196 91.023 23.582 90.869 25.298H103.178C103.024 23.582 102.375 22.196 101.231 21.14C100.109 20.062 98.701 19.523 97.007 19.523ZM115.45 17.51C117.716 17.51 119.454 18.082 120.664 19.226C121.874 20.348 122.479 22.02 122.479 24.242V35H120.235V32.294C119.707 33.196 118.926 33.9 117.892 34.406C116.88 34.912 115.67 35.165 114.262 35.165C112.326 35.165 110.786 34.703 109.642 33.779C108.498 32.855 107.926 31.634 107.926 30.116C107.926 28.642 108.454 27.454 109.51 26.552C110.588 25.65 112.293 25.199 114.625 25.199H120.136V24.143C120.136 22.647 119.718 21.514 118.882 20.744C118.046 19.952 116.825 19.556 115.219 19.556C114.119 19.556 113.063 19.743 112.051 20.117C111.039 20.469 110.17 20.964 109.444 21.602L108.388 19.853C109.268 19.105 110.324 18.533 111.556 18.137C112.788 17.719 114.086 17.51 115.45 17.51ZM114.625 33.317C115.945 33.317 117.078 33.02 118.024 32.426C118.97 31.81 119.674 30.93 120.136 29.786V26.948H114.691C111.721 26.948 110.236 27.982 110.236 30.05C110.236 31.062 110.621 31.865 111.391 32.459C112.161 33.031 113.239 33.317 114.625 33.317ZM134.947 26.288L130.855 30.05V35H128.512V10.514H130.855V27.113L141.217 17.642H144.121L136.696 24.737L144.814 35H141.943L134.947 26.288ZM148.497 11.9H150.939V32.888H163.875V35H148.497V11.9ZM181.961 27.047H167.441C167.573 28.851 168.266 30.314 169.52 31.436C170.774 32.536 172.358 33.086 174.272 33.086C175.35 33.086 176.34 32.899 177.242 32.525C178.144 32.129 178.925 31.557 179.585 30.809L180.905 32.327C180.135 33.251 179.167 33.955 178.001 34.439C176.857 34.923 175.592 35.165 174.206 35.165C172.424 35.165 170.84 34.791 169.454 34.043C168.09 33.273 167.023 32.217 166.253 30.875C165.483 29.533 165.098 28.015 165.098 26.321C165.098 24.627 165.461 23.109 166.187 21.767C166.935 20.425 167.947 19.38 169.223 18.632C170.521 17.884 171.973 17.51 173.579 17.51C175.185 17.51 176.626 17.884 177.902 18.632C179.178 19.38 180.179 20.425 180.905 21.767C181.631 23.087 181.994 24.605 181.994 26.321L181.961 27.047ZM173.579 19.523C171.907 19.523 170.499 20.062 169.355 21.14C168.233 22.196 167.595 23.582 167.441 25.298H179.75C179.596 23.582 178.947 22.196 177.803 21.14C176.681 20.062 175.273 19.523 173.579 19.523ZM192.021 17.51C194.287 17.51 196.025 18.082 197.235 19.226C198.445 20.348 199.05 22.02 199.05 24.242V35H196.806V32.294C196.278 33.196 195.497 33.9 194.463 34.406C193.451 34.912 192.241 35.165 190.833 35.165C188.897 35.165 187.357 34.703 186.213 33.779C185.069 32.855 184.497 31.634 184.497 30.116C184.497 28.642 185.025 27.454 186.081 26.552C187.159 25.65 188.864 25.199 191.196 25.199H196.707V24.143C196.707 22.647 196.289 21.514 195.453 20.744C194.617 19.952 193.396 19.556 191.79 19.556C190.69 19.556 189.634 19.743 188.622 20.117C187.61 20.469 186.741 20.964 186.015 21.602L184.959 19.853C185.839 19.105 186.895 18.533 188.127 18.137C189.359 17.719 190.657 17.51 192.021 17.51ZM191.196 33.317C192.516 33.317 193.649 33.02 194.595 32.426C195.541 31.81 196.245 30.93 196.707 29.786V26.948H191.262C188.292 26.948 186.807 27.982 186.807 30.05C186.807 31.062 187.192 31.865 187.962 32.459C188.732 33.031 189.81 33.317 191.196 33.317ZM207.328 21.041C207.878 19.875 208.692 18.995 209.77 18.401C210.87 17.807 212.223 17.51 213.829 17.51V19.787L213.268 19.754C211.442 19.754 210.012 20.315 208.978 21.437C207.944 22.559 207.427 24.132 207.427 26.156V35H205.084V17.642H207.328V21.041ZM226.585 17.51C228.763 17.51 230.49 18.148 231.766 19.424C233.064 20.678 233.713 22.515 233.713 24.935V35H231.37V25.166C231.37 23.362 230.919 21.987 230.017 21.041C229.115 20.095 227.828 19.622 226.156 19.622C224.286 19.622 222.801 20.183 221.701 21.305C220.623 22.405 220.084 23.934 220.084 25.892V35H217.741V17.642H219.985V20.843C220.623 19.787 221.503 18.973 222.625 18.401C223.769 17.807 225.089 17.51 226.585 17.51ZM254.008 17.642L245.329 37.079C244.625 38.707 243.811 39.862 242.887 40.544C241.963 41.226 240.852 41.567 239.554 41.567C238.718 41.567 237.937 41.435 237.211 41.171C236.485 40.907 235.858 40.511 235.33 39.983L236.419 38.234C237.299 39.114 238.355 39.554 239.587 39.554C240.379 39.554 241.05 39.334 241.6 38.894C242.172 38.454 242.7 37.706 243.184 36.65L243.943 34.967L236.188 17.642H238.63L245.164 32.393L251.698 17.642H254.008Z" fill="white"/>
<path d="M23.4218 23.1245C22.9327 22.3981 22.0028 21.8956 20.9159 21.8956C20.7391 21.8956 20.5958 22.0162 20.5958 22.165C20.5958 22.3138 20.7391 22.4345 20.9159 22.4345C21.7576 22.4345 22.4829 22.8228 22.8649 23.3902C22.9521 23.5199 23.1476 23.5651 23.3011 23.4918C23.4549 23.4184 23.5089 23.254 23.4218 23.1245ZM23.4762 24.0512C22.2618 24.0512 21.2359 24.9519 21.2359 26.0181C21.2359 26.167 21.3792 26.2876 21.5559 26.2876C21.7327 26.2876 21.876 26.167 21.876 26.0181C21.876 25.2574 22.6237 24.5901 23.4762 24.5901C23.6529 24.5901 23.7962 24.4694 23.7962 24.3206C23.7962 24.1718 23.6529 24.0512 23.4762 24.0512ZM22.8361 20.7369C22.4077 20.7369 22.044 20.4994 21.9208 20.1726C22.9831 20.0255 23.7962 19.2473 23.7962 18.3119C23.7962 18.1631 23.6529 18.0424 23.4762 18.0424C23.2994 18.0424 23.1561 18.1631 23.1561 18.3119C23.1561 19.0548 22.4383 19.6591 21.5559 19.6591C21.1618 19.6591 20.783 19.5373 20.4892 19.3161C20.3575 19.2168 20.1551 19.2263 20.0373 19.3372C19.9194 19.4481 19.9307 19.6185 20.0624 19.7177C20.4007 19.9725 20.8196 20.1328 21.2646 20.1818C21.4058 20.804 22.0566 21.2758 22.8361 21.2758C23.0128 21.2758 23.1561 21.1552 23.1561 21.0064C23.1561 20.8576 23.0128 20.7369 22.8361 20.7369ZM17.0754 21.8956C15.9909 21.8956 15.0598 22.3963 14.5695 23.1245C14.4824 23.2539 14.5364 23.4184 14.6901 23.4918C14.8439 23.5651 15.0392 23.5197 15.1264 23.3902C15.5083 22.8229 16.2331 22.4345 17.0754 22.4345C17.2522 22.4345 17.3955 22.3138 17.3955 22.165C17.3955 22.0162 17.2522 21.8956 17.0754 21.8956ZM14.5151 24.0512C14.3384 24.0512 14.1951 24.1718 14.1951 24.3206C14.1951 24.4694 14.3384 24.5901 14.5151 24.5901C15.3676 24.5901 16.1153 25.2574 16.1153 26.0181C16.1153 26.167 16.2586 26.2876 16.4354 26.2876C16.6121 26.2876 16.7554 26.167 16.7554 26.0181C16.7554 24.9519 15.7295 24.0512 14.5151 24.0512ZM17.954 19.3372C17.8362 19.2263 17.6339 19.2168 17.5021 19.3161C16.4758 20.089 14.8352 19.4713 14.8352 18.3119C14.8352 18.1631 14.6919 18.0424 14.5151 18.0424C14.3384 18.0424 14.1951 18.1631 14.1951 18.3119C14.1951 19.2473 15.0082 20.0255 16.0705 20.1726C15.9473 20.4994 15.5836 20.7369 15.1552 20.7369C14.9784 20.7369 14.8352 20.8576 14.8352 21.0064C14.8352 21.1552 14.9784 21.2758 15.1552 21.2758C15.9347 21.2758 16.5854 20.804 16.7266 20.1818C17.1717 20.1328 17.5906 19.9725 17.9289 19.7177C18.0606 19.6185 18.0719 19.4481 17.954 19.3372ZM25.9444 21.6229C26.2191 21.2758 26.3565 20.8428 26.3565 20.4675C26.3565 19.9018 26.058 19.3761 25.5458 19.0197C25.6591 18.7916 25.7164 18.5545 25.7164 18.3119C25.7164 17.5613 25.1962 16.8622 24.4227 16.5357C24.54 15.7162 23.9058 14.965 22.9659 14.7734C22.598 14.0574 21.7792 13.5696 20.9159 13.5696C20.1123 13.5696 19.3915 13.9642 18.9956 14.54C18.5998 13.9642 17.879 13.5696 17.0754 13.5696C16.2121 13.5696 15.3932 14.0574 15.0254 14.7734C14.0799 14.9662 13.4516 15.7212 13.5686 16.5357C12.7952 16.8621 12.2749 17.5613 12.2749 18.3119C12.2749 18.5545 12.3322 18.7916 12.4455 19.0197C11.9333 19.3762 11.6348 19.9018 11.6348 20.4675C11.6348 20.8447 11.7734 21.2772 12.0469 21.6229C11.7796 21.9406 11.6348 22.3171 11.6348 22.7039C11.6348 23.2055 11.8764 23.6834 12.3036 24.0382C12.084 25.1562 13.143 26.2876 14.5151 26.2876C14.5251 26.2876 14.5348 26.2875 14.5444 26.2872C14.9993 26.948 15.8438 27.3654 16.7554 27.3654C17.7055 27.3654 18.5545 26.8852 18.9956 26.1935C19.4368 26.8852 20.2858 27.3654 21.2359 27.3654C22.1475 27.3654 22.992 26.948 23.4469 26.2872C23.4565 26.2875 23.4662 26.2876 23.4762 26.2876C24.6905 26.2876 25.7164 25.3868 25.7164 24.3206C25.7164 24.2298 25.7069 24.1365 25.6876 24.0382C26.1149 23.6834 26.3565 23.2056 26.3565 22.7039C26.3565 22.3171 26.2117 21.9406 25.9444 21.6229ZM18.6756 17.6485C18.4872 17.5565 18.2686 17.5035 18.0355 17.5035C17.8588 17.5035 17.7155 17.6242 17.7155 17.773C17.7155 17.9218 17.8588 18.0424 18.0355 18.0424C18.3885 18.0424 18.6756 18.2842 18.6756 18.5813V23.7054C18.2061 23.257 17.5195 22.9734 16.7554 22.9734C16.5786 22.9734 16.4354 23.094 16.4354 23.2428C16.4354 23.3916 16.5786 23.5123 16.7554 23.5123C17.8142 23.5123 18.6756 24.2375 18.6756 25.129C18.6756 26.0491 17.7962 26.8265 16.7554 26.8265C16.0144 26.8265 15.3323 26.4576 15.0176 25.8867C14.9596 25.7814 14.8282 25.7194 14.6912 25.7324C14.6686 25.7346 14.6461 25.7371 14.6236 25.7397C13.7127 25.8445 12.687 24.9762 12.9647 24.0048C12.9932 23.905 12.9519 23.8003 12.8582 23.7346C12.4875 23.4749 12.2749 23.0992 12.2749 22.7039C12.2749 22.4595 12.357 22.2203 12.5097 22.0106C12.8936 22.2754 13.371 22.4345 13.8751 22.4345C14.0518 22.4345 14.1951 22.3138 14.1951 22.165C14.1951 22.0162 14.0518 21.8956 13.8751 21.8956C13.0065 21.8956 12.2749 21.2281 12.2749 20.4675C12.2749 20.0061 12.5542 19.5816 13.0222 19.332C13.1664 19.2551 13.2135 19.0965 13.1293 18.9715C12.9871 18.7602 12.9149 18.5383 12.9149 18.3119C12.9149 17.5847 13.6191 16.8838 14.5151 16.8838C15.3676 16.8838 16.1153 17.5512 16.1153 18.3119C16.1153 18.4607 16.2586 18.5813 16.4354 18.5813C16.6121 18.5813 16.7554 18.4607 16.7554 18.3119C16.7554 17.2457 15.7295 16.3449 14.5151 16.3449C14.408 16.3449 14.3014 16.3522 14.1959 16.366C14.1959 16.359 14.1951 16.3521 14.1951 16.3449C14.1951 15.7436 14.7749 15.2671 15.4752 15.2671C15.8171 15.2671 16.1387 15.3792 16.3807 15.5828C16.5057 15.6879 16.7083 15.6878 16.8333 15.5826C16.9582 15.4773 16.9581 15.3067 16.833 15.2015C16.541 14.956 16.1717 14.7994 15.7715 14.7475C16.0537 14.3947 16.5231 14.1085 17.0753 14.1085C17.9278 14.1085 18.6755 14.7758 18.6755 15.5366L18.6756 17.6485ZM24.1162 22.4345C24.6203 22.4345 25.0978 22.2754 25.4816 22.0107C25.6343 22.2204 25.7164 22.4595 25.7164 22.7039C25.7164 23.0992 25.5038 23.4749 25.1331 23.7346C25.0394 23.8003 24.9981 23.905 25.0266 24.0048C25.0606 24.1234 25.0763 24.2238 25.0763 24.3206C25.0763 25.157 24.1778 25.8329 23.3678 25.7397C23.3453 25.7371 23.3227 25.7345 23.3001 25.7324C23.1629 25.7193 23.0317 25.7814 22.9737 25.8867C22.659 26.4576 21.9768 26.8265 21.2359 26.8265C20.195 26.8265 19.3157 26.0491 19.3157 25.129C19.3157 24.2375 20.1771 23.5123 21.2359 23.5123C21.4126 23.5123 21.5559 23.3916 21.5559 23.2428C21.5559 23.094 21.4126 22.9734 21.2359 22.9734C20.4718 22.9734 19.7852 23.257 19.3157 23.7054V18.5813C19.3157 18.2842 19.6028 18.0424 19.9558 18.0424C20.1325 18.0424 20.2758 17.9218 20.2758 17.773C20.2758 17.6242 20.1325 17.5035 19.9558 17.5035C19.7227 17.5035 19.5041 17.5565 19.3157 17.6485V15.5366C19.3157 14.7758 20.0634 14.1085 20.9159 14.1085C21.4681 14.1085 21.9374 14.3947 22.2197 14.7475C21.8195 14.7994 21.4502 14.956 21.1582 15.2015C21.0332 15.3067 21.033 15.4773 21.1579 15.5826C21.2828 15.6879 21.4855 15.6879 21.6105 15.5828C21.8526 15.3792 22.1742 15.2671 22.516 15.2671C23.2199 15.2671 23.7962 15.7464 23.7962 16.3449C23.7962 16.352 23.7955 16.359 23.7954 16.366C23.6898 16.3522 23.5833 16.3449 23.4761 16.3449C22.2618 16.3449 21.2359 17.2457 21.2359 18.3119C21.2359 18.4607 21.3792 18.5813 21.5559 18.5813C21.7326 18.5813 21.8759 18.4607 21.8759 18.3119C21.8759 17.5512 22.6237 16.8838 23.4761 16.8838C24.3717 16.8838 25.0763 17.5843 25.0763 18.3119C25.0763 18.5383 25.0042 18.7602 24.8619 18.9715C24.7778 19.0965 24.8249 19.2551 24.9691 19.332C25.437 19.5816 25.7164 20.0061 25.7164 20.4675C25.7164 21.2309 24.9822 21.8956 24.1162 21.8956C23.9395 21.8956 23.7962 22.0162 23.7962 22.165C23.7962 22.3138 23.9395 22.4345 24.1162 22.4345H24.1162ZM17.3955 15.806C17.2188 15.806 17.0754 15.9267 17.0754 16.0755C17.0754 16.2242 17.2188 16.3449 17.3955 16.3449C17.5721 16.3449 17.7155 16.2242 17.7155 16.0755C17.7155 15.9267 17.5721 15.806 17.3955 15.806ZM20.5958 15.806C20.4192 15.806 20.2758 15.9267 20.2758 16.0755C20.2758 16.2242 20.4192 16.3449 20.5958 16.3449C20.7725 16.3449 20.9159 16.2242 20.9159 16.0755C20.9159 15.9267 20.7725 15.806 20.5958 15.806ZM37.3913 10.9495C37.225 10.6214 36.7677 10.4984 36.4351 10.6624L32.1947 12.9179C31.8621 13.082 31.7374 13.5331 31.9037 13.8611C32.0284 14.1072 32.2778 14.2302 32.5273 14.2302C32.652 14.2302 32.7767 14.1892 32.8598 14.1482L37.1003 11.8927C37.4329 11.7287 37.5576 11.2775 37.3913 10.9495ZM5.25521 12.9179L1.05632 10.6624C0.723736 10.4984 0.266428 10.6214 0.100137 10.9495C-0.10773 11.2775 0.0169893 11.7287 0.391151 11.8927L4.59004 14.1482C4.71476 14.1892 4.79791 14.2302 4.92263 14.2302C5.17207 14.2302 5.42151 14.1072 5.54623 13.8611C5.71252 13.5331 5.5878 13.082 5.25521 12.9179ZM10.2856 8.57094C10.4103 8.57094 10.535 8.52993 10.6597 8.44791C10.9923 8.24286 11.0755 7.79176 10.8676 7.46369L8.29006 3.48579C8.0822 3.15771 7.62489 3.0757 7.2923 3.28074C6.95972 3.48579 6.87657 3.93689 7.08444 4.26496L9.66198 8.24286C9.82827 8.48892 10.0361 8.57094 10.2856 8.57094ZM30.4902 3.5268C30.1576 3.28074 29.7419 3.40377 29.534 3.69083L26.8733 7.62773C26.6239 7.9558 26.707 8.4069 27.0396 8.61195C27.1643 8.69397 27.289 8.73498 27.4138 8.73498C27.6632 8.73498 27.8711 8.61195 27.9958 8.4069L30.6565 4.47001C30.9059 4.18295 30.8228 3.73184 30.4902 3.5268ZM18.7249 6.15139C19.1407 6.15139 19.4317 5.82332 19.4317 5.45423V0.697157C19.4317 0.328074 19.0991 0 18.7249 0C18.3508 0 18.0182 0.328074 18.0182 0.697157V5.45423C18.0182 5.82332 18.3508 6.15139 18.7249 6.15139ZM21.9677 40.8862H15.4822C14.526 40.8862 13.7362 41.6654 13.7362 42.6086C13.7362 43.5518 14.526 44.331 15.4822 44.331H21.9677C22.9238 44.331 23.7137 43.5518 23.7137 42.6086C23.7137 41.6244 22.9238 40.8862 21.9677 40.8862ZM21.9677 42.8957H15.4822C15.3159 42.8957 15.1496 42.7727 15.1496 42.5676C15.1496 42.3626 15.2744 42.2395 15.4822 42.2395H21.9677C22.1339 42.2395 22.3002 42.3626 22.3002 42.5676C22.3002 42.7727 22.1339 42.8957 21.9677 42.8957ZM23.3396 36.7443H14.1103C13.1541 36.7443 12.3642 37.5235 12.3642 38.4667C12.3642 39.4099 13.1541 40.1891 14.1103 40.1891H23.298C24.2958 40.1481 25.0857 39.4099 25.0857 38.4667C25.0857 37.5235 24.2958 36.7443 23.3396 36.7443ZM23.3396 38.7538H14.1103C13.944 38.7538 13.7777 38.6307 13.7777 38.4257C13.7777 38.2206 13.9024 38.0976 14.1103 38.0976H23.298C23.4643 38.0976 23.6306 38.2206 23.6306 38.4257C23.6306 38.6307 23.5059 38.7538 23.3396 38.7538ZM18.7665 9.55516C12.4058 9.55516 7.20916 14.6813 7.20916 20.9557C7.20916 24.2365 8.66422 27.3942 11.117 29.5267C12.9463 31.3311 12.78 35.186 12.7384 35.227C12.7384 35.432 12.78 35.5961 12.9463 35.7601C13.071 35.8831 13.2789 35.9651 13.4451 35.9651H24.0463C24.2542 35.9651 24.4205 35.8831 24.5452 35.7601C24.6699 35.6371 24.7531 35.432 24.7531 35.227C24.7531 35.186 24.5452 31.3311 26.3744 29.5267C26.416 29.4857 26.4576 29.4447 26.4991 29.4036C28.9104 27.2302 30.3239 24.1545 30.3239 20.9557C30.3239 14.6813 25.1272 9.55516 18.7665 9.55516ZM25.4182 28.4604C25.3767 28.5014 25.2935 28.5835 25.2935 28.6245C23.6722 30.3469 23.3812 33.1765 23.3396 34.5298H14.1519C14.1103 33.1765 13.8193 30.2238 12.0732 28.4604C9.86985 26.574 8.58107 23.8264 8.58107 20.9147C8.58107 15.3785 13.1126 10.9085 18.7249 10.9085C24.3373 10.9085 28.8688 15.3785 28.8688 20.9147C28.8688 23.8264 27.6216 26.574 25.4182 28.4604Z" fill="url(#paint0_linear)"/>
<defs>
<linearGradient id="paint0_linear" x1="18.8189" y1="-5.2867" x2="18.9979" y2="51.5014" gradientUnits="userSpaceOnUse">
<stop stop-color="#8D85E7"/>
<stop offset="1" stop-color="#FF81FF"/>
</linearGradient>
</defs>
</svg>
