<svg width="264" height="45" viewBox="0 0 264 45" fill="none" xmlns="http://www.w3.org/2000/svg">
<path d="M64.1308 32.1982C62.4148 32.1982 60.7648 31.9232 59.1808 31.3732C57.6188 30.8232 56.4088 30.0972 55.5508 29.1952L56.5078 27.3142C57.3438 28.1502 58.4548 28.8322 59.8408 29.3602C61.2268 29.8662 62.6568 30.1192 64.1308 30.1192C66.1988 30.1192 67.7498 29.7452 68.7838 28.9972C69.8178 28.2272 70.3348 27.2372 70.3348 26.0272C70.3348 25.1032 70.0488 24.3662 69.4768 23.8162C68.9268 23.2662 68.2448 22.8482 67.4308 22.5622C66.6168 22.2542 65.4838 21.9242 64.0318 21.5722C62.2938 21.1322 60.9078 20.7142 59.8738 20.3182C58.8398 19.9002 57.9488 19.2732 57.2008 18.4372C56.4748 17.6012 56.1118 16.4682 56.1118 15.0382C56.1118 13.8722 56.4198 12.8162 57.0358 11.8702C57.6518 10.9022 58.5978 10.1322 59.8738 9.56016C61.1498 8.98816 62.7338 8.70216 64.6258 8.70216C65.9458 8.70216 67.2328 8.88916 68.4868 9.26316C69.7628 9.61516 70.8628 10.1102 71.7868 10.7482L70.9618 12.6952C69.9938 12.0572 68.9598 11.5842 67.8598 11.2762C66.7598 10.9462 65.6818 10.7812 64.6258 10.7812C62.6018 10.7812 61.0728 11.1772 60.0388 11.9692C59.0268 12.7392 58.5208 13.7402 58.5208 14.9722C58.5208 15.8962 58.7958 16.6442 59.3458 17.2162C59.9178 17.7662 60.6218 18.1952 61.4578 18.5032C62.3158 18.7892 63.4598 19.1082 64.8898 19.4602C66.5838 19.8782 67.9478 20.2962 68.9818 20.7142C70.0378 21.1102 70.9288 21.7262 71.6548 22.5622C72.3808 23.3762 72.7438 24.4872 72.7438 25.8952C72.7438 27.0612 72.4248 28.1282 71.7868 29.0962C71.1708 30.0422 70.2138 30.8012 68.9158 31.3732C67.6178 31.9232 66.0228 32.1982 64.1308 32.1982ZM86.1825 14.5102C87.8105 14.5102 89.2845 14.8842 90.6045 15.6322C91.9245 16.3582 92.9585 17.3922 93.7065 18.7342C94.4545 20.0762 94.8285 21.6052 94.8285 23.3212C94.8285 25.0592 94.4545 26.5992 93.7065 27.9412C92.9585 29.2832 91.9245 30.3282 90.6045 31.0762C89.3065 31.8022 87.8325 32.1652 86.1825 32.1652C84.7745 32.1652 83.4985 31.8792 82.3545 31.3072C81.2325 30.7132 80.3085 29.8552 79.5825 28.7332V38.4022H77.2395V14.6422H79.4835V18.0742C80.1875 16.9302 81.1115 16.0502 82.2555 15.4342C83.4215 14.8182 84.7305 14.5102 86.1825 14.5102ZM86.0175 30.0862C87.2275 30.0862 88.3275 29.8112 89.3175 29.2612C90.3075 28.6892 91.0775 27.8862 91.6275 26.8522C92.1995 25.8182 92.4855 24.6412 92.4855 23.3212C92.4855 22.0012 92.1995 20.8352 91.6275 19.8232C91.0775 18.7892 90.3075 17.9862 89.3175 17.4142C88.3275 16.8422 87.2275 16.5562 86.0175 16.5562C84.7855 16.5562 83.6745 16.8422 82.6845 17.4142C81.7165 17.9862 80.9465 18.7892 80.3745 19.8232C79.8245 20.8352 79.5495 22.0012 79.5495 23.3212C79.5495 24.6412 79.8245 25.8182 80.3745 26.8522C80.9465 27.8862 81.7165 28.6892 82.6845 29.2612C83.6745 29.8112 84.7855 30.0862 86.0175 30.0862ZM114.389 24.0472H99.8688C100.001 25.8512 100.694 27.3142 101.948 28.4362C103.202 29.5362 104.786 30.0862 106.7 30.0862C107.778 30.0862 108.768 29.8992 109.67 29.5252C110.572 29.1292 111.353 28.5572 112.013 27.8092L113.333 29.3272C112.563 30.2512 111.595 30.9552 110.429 31.4392C109.285 31.9232 108.02 32.1652 106.634 32.1652C104.852 32.1652 103.268 31.7912 101.882 31.0432C100.518 30.2732 99.4508 29.2172 98.6808 27.8752C97.9108 26.5332 97.5258 25.0152 97.5258 23.3212C97.5258 21.6272 97.8888 20.1092 98.6148 18.7672C99.3628 17.4252 100.375 16.3802 101.651 15.6322C102.949 14.8842 104.401 14.5102 106.007 14.5102C107.613 14.5102 109.054 14.8842 110.33 15.6322C111.606 16.3802 112.607 17.4252 113.333 18.7672C114.059 20.0872 114.422 21.6052 114.422 23.3212L114.389 24.0472ZM106.007 16.5232C104.335 16.5232 102.927 17.0622 101.783 18.1402C100.661 19.1962 100.023 20.5822 99.8688 22.2982H112.178C112.024 20.5822 111.375 19.1962 110.231 18.1402C109.109 17.0622 107.701 16.5232 106.007 16.5232ZM124.45 14.5102C126.716 14.5102 128.454 15.0822 129.664 16.2262C130.874 17.3482 131.479 19.0202 131.479 21.2422V32.0002H129.235V29.2942C128.707 30.1962 127.926 30.9002 126.892 31.4062C125.88 31.9122 124.67 32.1652 123.262 32.1652C121.326 32.1652 119.786 31.7032 118.642 30.7792C117.498 29.8552 116.926 28.6342 116.926 27.1162C116.926 25.6422 117.454 24.4542 118.51 23.5522C119.588 22.6502 121.293 22.1992 123.625 22.1992H129.136V21.1432C129.136 19.6472 128.718 18.5142 127.882 17.7442C127.046 16.9522 125.825 16.5562 124.219 16.5562C123.119 16.5562 122.063 16.7432 121.051 17.1172C120.039 17.4692 119.17 17.9642 118.444 18.6022L117.388 16.8532C118.268 16.1052 119.324 15.5332 120.556 15.1372C121.788 14.7192 123.086 14.5102 124.45 14.5102ZM123.625 30.3172C124.945 30.3172 126.078 30.0202 127.024 29.4262C127.97 28.8102 128.674 27.9302 129.136 26.7862V23.9482H123.691C120.721 23.9482 119.236 24.9822 119.236 27.0502C119.236 28.0622 119.621 28.8652 120.391 29.4592C121.161 30.0312 122.239 30.3172 123.625 30.3172ZM143.947 23.2882L139.855 27.0502V32.0002H137.512V7.51416H139.855V24.1132L150.217 14.6422H153.121L145.696 21.7372L153.814 32.0002H150.943L143.947 23.2882ZM157.497 8.90016H159.939V29.8882H172.875V32.0002H157.497V8.90016ZM190.961 24.0472H176.441C176.573 25.8512 177.266 27.3142 178.52 28.4362C179.774 29.5362 181.358 30.0862 183.272 30.0862C184.35 30.0862 185.34 29.8992 186.242 29.5252C187.144 29.1292 187.925 28.5572 188.585 27.8092L189.905 29.3272C189.135 30.2512 188.167 30.9552 187.001 31.4392C185.857 31.9232 184.592 32.1652 183.206 32.1652C181.424 32.1652 179.84 31.7912 178.454 31.0432C177.09 30.2732 176.023 29.2172 175.253 27.8752C174.483 26.5332 174.098 25.0152 174.098 23.3212C174.098 21.6272 174.461 20.1092 175.187 18.7672C175.935 17.4252 176.947 16.3802 178.223 15.6322C179.521 14.8842 180.973 14.5102 182.579 14.5102C184.185 14.5102 185.626 14.8842 186.902 15.6322C188.178 16.3802 189.179 17.4252 189.905 18.7672C190.631 20.0872 190.994 21.6052 190.994 23.3212L190.961 24.0472ZM182.579 16.5232C180.907 16.5232 179.499 17.0622 178.355 18.1402C177.233 19.1962 176.595 20.5822 176.441 22.2982H188.75C188.596 20.5822 187.947 19.1962 186.803 18.1402C185.681 17.0622 184.273 16.5232 182.579 16.5232ZM201.021 14.5102C203.287 14.5102 205.025 15.0822 206.235 16.2262C207.445 17.3482 208.05 19.0202 208.05 21.2422V32.0002H205.806V29.2942C205.278 30.1962 204.497 30.9002 203.463 31.4062C202.451 31.9122 201.241 32.1652 199.833 32.1652C197.897 32.1652 196.357 31.7032 195.213 30.7792C194.069 29.8552 193.497 28.6342 193.497 27.1162C193.497 25.6422 194.025 24.4542 195.081 23.5522C196.159 22.6502 197.864 22.1992 200.196 22.1992H205.707V21.1432C205.707 19.6472 205.289 18.5142 204.453 17.7442C203.617 16.9522 202.396 16.5562 200.79 16.5562C199.69 16.5562 198.634 16.7432 197.622 17.1172C196.61 17.4692 195.741 17.9642 195.015 18.6022L193.959 16.8532C194.839 16.1052 195.895 15.5332 197.127 15.1372C198.359 14.7192 199.657 14.5102 201.021 14.5102ZM200.196 30.3172C201.516 30.3172 202.649 30.0202 203.595 29.4262C204.541 28.8102 205.245 27.9302 205.707 26.7862V23.9482H200.262C197.292 23.9482 195.807 24.9822 195.807 27.0502C195.807 28.0622 196.192 28.8652 196.962 29.4592C197.732 30.0312 198.81 30.3172 200.196 30.3172ZM216.328 18.0412C216.878 16.8752 217.692 15.9952 218.77 15.4012C219.87 14.8072 221.223 14.5102 222.829 14.5102V16.7872L222.268 16.7542C220.442 16.7542 219.012 17.3152 217.978 18.4372C216.944 19.5592 216.427 21.1322 216.427 23.1562V32.0002H214.084V14.6422H216.328V18.0412ZM235.585 14.5102C237.763 14.5102 239.49 15.1482 240.766 16.4242C242.064 17.6782 242.713 19.5152 242.713 21.9352V32.0002H240.37V22.1662C240.37 20.3622 239.919 18.9872 239.017 18.0412C238.115 17.0952 236.828 16.6222 235.156 16.6222C233.286 16.6222 231.801 17.1832 230.701 18.3052C229.623 19.4052 229.084 20.9342 229.084 22.8922V32.0002H226.741V14.6422H228.985V17.8432C229.623 16.7872 230.503 15.9732 231.625 15.4012C232.769 14.8072 234.089 14.5102 235.585 14.5102ZM263.008 14.6422L254.329 34.0792C253.625 35.7072 252.811 36.8622 251.887 37.5442C250.963 38.2262 249.852 38.5672 248.554 38.5672C247.718 38.5672 246.937 38.4352 246.211 38.1712C245.485 37.9072 244.858 37.5112 244.33 36.9832L245.419 35.2342C246.299 36.1142 247.355 36.5542 248.587 36.5542C249.379 36.5542 250.05 36.3342 250.6 35.8942C251.172 35.4542 251.7 34.7062 252.184 33.6502L252.943 31.9672L245.188 14.6422H247.63L254.164 29.3932L260.698 14.6422H263.008Z" fill="white"/>
<path d="M45 21.902C45 9.80586 34.9264 0 22.5 0C10.0736 0 0 9.80586 0 21.902V23.098C0 35.1941 10.0736 45 22.5 45C34.9264 45 45 35.1941 45 23.098V21.902Z" fill="white"/>
<path d="M26.6306 23.3869C26.1997 22.7151 25.3808 22.2503 24.4234 22.2503C24.2676 22.2503 24.1414 22.3619 24.1414 22.4995C24.1414 22.6372 24.2676 22.7488 24.4234 22.7488C25.1647 22.7488 25.8036 23.1079 26.14 23.6327C26.2169 23.7525 26.389 23.7944 26.5243 23.7267C26.6598 23.6587 26.7073 23.5066 26.6306 23.3869ZM26.6785 24.244C25.6089 24.244 24.7052 25.077 24.7052 26.0632C24.7052 26.2008 24.8314 26.3124 24.9871 26.3124C25.1428 26.3124 25.269 26.2008 25.269 26.0632C25.269 25.3596 25.9277 24.7423 26.6785 24.7423C26.8342 24.7423 26.9604 24.6308 26.9604 24.4932C26.9604 24.3555 26.8342 24.244 26.6785 24.244ZM26.1147 21.1787C25.7373 21.1787 25.417 20.959 25.3085 20.6569C26.2441 20.5207 26.9604 19.8011 26.9604 18.9359C26.9604 18.7983 26.8342 18.6867 26.6785 18.6867C26.5229 18.6867 26.3966 18.7983 26.3966 18.9359C26.3966 19.623 25.7643 20.1819 24.9871 20.1819C24.6399 20.1819 24.3063 20.0693 24.0474 19.8646C23.9315 19.7729 23.7532 19.7816 23.6494 19.8842C23.5456 19.9868 23.5556 20.1443 23.6716 20.2361C23.9695 20.4718 24.3385 20.62 24.7306 20.6654C24.8549 21.2408 25.4281 21.6772 26.1147 21.6772C26.2703 21.6772 26.3966 21.5656 26.3966 21.4279C26.3966 21.2903 26.2703 21.1787 26.1147 21.1787ZM21.0405 22.2503C20.0853 22.2503 19.2651 22.7134 18.8333 23.3869C18.7565 23.5066 18.8041 23.6587 18.9395 23.7266C19.075 23.7945 19.247 23.7524 19.3238 23.6327C19.6602 23.108 20.2986 22.7488 21.0405 22.7488C21.1962 22.7488 21.3224 22.6372 21.3224 22.4995C21.3224 22.3619 21.1962 22.2503 21.0405 22.2503ZM18.7854 24.244C18.6296 24.244 18.5034 24.3555 18.5034 24.4932C18.5034 24.6308 18.6296 24.7423 18.7854 24.7423C19.5362 24.7423 20.1948 25.3596 20.1948 26.0632C20.1948 26.2008 20.321 26.3124 20.4767 26.3124C20.6325 26.3124 20.7587 26.2008 20.7587 26.0632C20.7587 25.077 19.855 24.244 18.7854 24.244ZM21.8144 19.8842C21.7106 19.7817 21.5324 19.7729 21.4164 19.8646C20.5125 20.5795 19.0673 20.0082 19.0673 18.9359C19.0673 18.7983 18.9411 18.6867 18.7854 18.6867C18.6296 18.6867 18.5034 18.7983 18.5034 18.9359C18.5034 19.8011 19.2196 20.5207 20.1553 20.6569C20.0469 20.959 19.7265 21.1787 19.3491 21.1787C19.1935 21.1787 19.0673 21.2903 19.0673 21.4279C19.0673 21.5656 19.1935 21.6772 19.3491 21.6772C20.0358 21.6772 20.609 21.2408 20.7333 20.6654C21.1254 20.62 21.4943 20.4718 21.7923 20.2361C21.9083 20.1443 21.9183 19.9868 21.8144 19.8842ZM28.8526 21.9981C29.0946 21.6772 29.2156 21.2767 29.2156 20.9296C29.2156 20.4063 28.9527 19.9202 28.5015 19.5905C28.6013 19.3797 28.6518 19.1603 28.6518 18.9359C28.6518 18.2418 28.1936 17.5951 27.5122 17.2932C27.6156 16.5353 27.0569 15.8405 26.2291 15.6633C25.905 15.0011 25.1838 14.5499 24.4234 14.5499C23.7154 14.5499 23.0807 14.9149 22.732 15.4475C22.3832 14.9149 21.7484 14.5499 21.0405 14.5499C20.28 14.5499 19.5589 15.0011 19.2348 15.6633C18.402 15.8417 17.8485 16.5399 17.9516 17.2932C17.2703 17.5951 16.8121 18.2418 16.8121 18.9359C16.8121 19.1603 16.8625 19.3797 16.9624 19.5905C16.5112 19.9203 16.2483 20.4063 16.2483 20.9296C16.2483 21.2785 16.3704 21.6785 16.6112 21.9981C16.3759 22.292 16.2483 22.6402 16.2483 22.998C16.2483 23.4618 16.4611 23.9038 16.8374 24.2319C16.644 25.2659 17.5767 26.3124 18.7854 26.3124C18.794 26.3124 18.8027 26.3123 18.8111 26.312C19.2118 26.9231 19.9556 27.3092 20.7587 27.3092C21.5955 27.3092 22.3434 26.8651 22.732 26.2253C23.1205 26.8651 23.8683 27.3092 24.7052 27.3092C25.5082 27.3092 26.252 26.9231 26.6527 26.312C26.6612 26.3123 26.6697 26.3124 26.6785 26.3124C27.7481 26.3124 28.6518 25.4792 28.6518 24.4932C28.6518 24.4092 28.6435 24.3228 28.6264 24.2319C29.0028 23.9038 29.2156 23.4618 29.2156 22.998C29.2156 22.6402 29.088 22.292 28.8526 21.9981ZM22.45 18.3225C22.284 18.2373 22.0916 18.1883 21.8862 18.1883C21.7306 18.1883 21.6044 18.2999 21.6044 18.4375C21.6044 18.5752 21.7306 18.6867 21.8862 18.6867C22.1971 18.6867 22.45 18.9103 22.45 19.1852V23.9242C22.0364 23.5095 21.4318 23.2471 20.7587 23.2471C20.6029 23.2471 20.4767 23.3587 20.4767 23.4963C20.4767 23.6339 20.6029 23.7455 20.7587 23.7455C21.6913 23.7455 22.45 24.4163 22.45 25.2408C22.45 26.0918 21.6754 26.8107 20.7587 26.8107C20.106 26.8107 19.5051 26.4696 19.2279 25.9415C19.1769 25.8442 19.0611 25.7869 18.9405 25.7989C18.9205 25.8008 18.9007 25.8032 18.8809 25.8056C18.0786 25.9026 17.1751 25.0994 17.4197 24.2011C17.4448 24.1088 17.4085 24.0119 17.3259 23.9513C16.9993 23.711 16.8121 23.3636 16.8121 22.998C16.8121 22.7719 16.8843 22.5507 17.019 22.3567C17.357 22.6017 17.7776 22.7488 18.2216 22.7488C18.3772 22.7488 18.5034 22.6372 18.5034 22.4995C18.5034 22.3619 18.3772 22.2503 18.2216 22.2503C17.4565 22.2503 16.8121 21.633 16.8121 20.9296C16.8121 20.5028 17.0581 20.1102 17.4704 19.8794C17.5974 19.8083 17.6389 19.6615 17.5647 19.5459C17.4394 19.3506 17.3758 19.1454 17.3758 18.9359C17.3758 18.2633 17.9961 17.6152 18.7854 17.6152C19.5362 17.6152 20.1948 18.2323 20.1948 18.9359C20.1948 19.0735 20.321 19.1852 20.4767 19.1852C20.6325 19.1852 20.7587 19.0735 20.7587 18.9359C20.7587 17.9498 19.855 17.1168 18.7854 17.1168C18.691 17.1168 18.5971 17.1235 18.5041 17.1363C18.5041 17.1298 18.5034 17.1234 18.5034 17.1168C18.5034 16.5606 19.0142 16.12 19.6311 16.12C19.9321 16.12 20.2154 16.2236 20.4286 16.4119C20.5387 16.5091 20.7172 16.509 20.8273 16.4117C20.9372 16.3143 20.9372 16.1566 20.8269 16.0593C20.5698 15.8321 20.2445 15.6874 19.8921 15.6394C20.1406 15.3131 20.5541 15.0484 21.0404 15.0484C21.7914 15.0484 22.45 15.6656 22.45 16.3691V18.3225ZM27.2424 22.7488C27.6863 22.7488 28.1069 22.6017 28.4449 22.3567C28.5795 22.5507 28.6518 22.7719 28.6518 22.998C28.6518 23.3636 28.4645 23.711 28.138 23.9513C28.0555 24.0119 28.0191 24.1088 28.0442 24.2011C28.074 24.3108 28.0879 24.4036 28.0879 24.4932C28.0879 25.2667 27.2966 25.8918 26.583 25.8056C26.5632 25.8032 26.5433 25.8008 26.5234 25.7989C26.4026 25.7867 26.287 25.8442 26.236 25.9415C25.9587 26.4696 25.3579 26.8107 24.7052 26.8107C23.7884 26.8107 23.0138 26.0918 23.0138 25.2408C23.0138 24.4163 23.7726 23.7455 24.7052 23.7455C24.8609 23.7455 24.9871 23.6339 24.9871 23.4963C24.9871 23.3587 24.8609 23.2471 24.7052 23.2471C24.0321 23.2471 23.4274 23.5095 23.0138 23.9242V19.1852C23.0138 18.9103 23.2667 18.6867 23.5777 18.6867C23.7333 18.6867 23.8595 18.5752 23.8595 18.4375C23.8595 18.2999 23.7333 18.1883 23.5777 18.1883C23.3723 18.1883 23.1798 18.2373 23.0138 18.3225V16.3691C23.0138 15.6656 23.6724 15.0484 24.4234 15.0484C24.9097 15.0484 25.3232 15.3131 25.5717 15.6394C25.2193 15.6874 24.894 15.8321 24.6368 16.0593C24.5267 16.1566 24.5266 16.3143 24.6365 16.4117C24.7466 16.5091 24.925 16.5091 25.0351 16.4119C25.2484 16.2236 25.5317 16.12 25.8328 16.12C26.4527 16.12 26.9604 16.5632 26.9604 17.1168C26.9604 17.1233 26.9598 17.1298 26.9597 17.1363C26.8668 17.1235 26.7728 17.1168 26.6785 17.1168C25.6088 17.1168 24.7052 17.9498 24.7052 18.9359C24.7052 19.0735 24.8314 19.1852 24.9871 19.1852C25.1428 19.1852 25.269 19.0735 25.269 18.9359C25.269 18.2323 25.9276 17.6152 26.6785 17.6152C27.4673 17.6152 28.0879 18.263 28.0879 18.9359C28.0879 19.1454 28.0244 19.3506 27.8991 19.5459C27.825 19.6615 27.8665 19.8083 27.9935 19.8794C28.4057 20.1102 28.6518 20.5028 28.6518 20.9296C28.6518 21.6356 28.0051 22.2503 27.2422 22.2503C27.0866 22.2503 26.9604 22.3619 26.9604 22.4995C26.9604 22.6372 27.0866 22.7488 27.2422 22.7488H27.2424ZM21.3224 16.6183C21.1669 16.6183 21.0405 16.73 21.0405 16.8675C21.0405 17.0051 21.1669 17.1168 21.3224 17.1168C21.4781 17.1168 21.6044 17.0051 21.6044 16.8675C21.6044 16.73 21.4781 16.6183 21.3224 16.6183ZM24.1414 16.6183C23.9858 16.6183 23.8595 16.73 23.8595 16.8675C23.8595 17.0051 23.9858 17.1168 24.1414 17.1168C24.297 17.1168 24.4234 17.0051 24.4234 16.8675C24.4234 16.73 24.297 16.6183 24.1414 16.6183ZM38.9354 12.1268C38.7889 11.8233 38.3861 11.7095 38.0932 11.8612L34.358 13.9472C34.065 14.0989 33.9552 14.5162 34.1017 14.8197C34.2116 15.0471 34.4313 15.1609 34.651 15.1609C34.7608 15.1609 34.8707 15.123 34.9439 15.0851L38.6791 12.9991C38.9721 12.8474 39.0819 12.4301 38.9354 12.1268ZM10.6289 13.9472L6.93044 11.8612C6.63748 11.7095 6.23468 11.8233 6.0882 12.1268C5.90511 12.4301 6.01497 12.8474 6.34454 12.9991L10.0431 15.0851C10.1529 15.123 10.2261 15.1609 10.336 15.1609C10.5557 15.1609 10.7754 15.0471 10.8853 14.8197C11.0318 14.5162 10.9219 14.0989 10.6289 13.9472ZM15.0598 9.92692C15.1697 9.92692 15.2795 9.88902 15.3894 9.81313C15.6823 9.62345 15.7556 9.2063 15.5725 8.90286L13.3022 5.22387C13.119 4.92044 12.7162 4.84458 12.4233 5.03423C12.1303 5.22387 12.0571 5.64107 12.2401 5.94449L14.5106 9.62345C14.657 9.85102 14.8401 9.92692 15.0598 9.92692ZM32.8566 5.26179C32.5638 5.03422 32.1975 5.14801 32.0144 5.41351L29.6708 9.05458C29.4511 9.35798 29.5244 9.77523 29.8173 9.96481C29.9272 10.0407 30.037 10.0786 30.1469 10.0786C30.3666 10.0786 30.5497 9.96481 30.6595 9.77523L33.0031 6.13413C33.2228 5.86863 33.1496 5.45143 32.8566 5.26179ZM22.4934 7.68917C22.8597 7.68917 23.1161 7.38575 23.1161 7.0444V2.64478C23.1161 2.30343 22.8231 2 22.4934 2C22.1639 2 21.8709 2.30343 21.8709 2.64478V7.0444C21.8709 7.38575 22.1639 7.68917 22.4934 7.68917ZM25.3498 39.8141H19.6372C18.795 39.8141 18.0992 40.5347 18.0992 41.407C18.0992 42.2794 18.795 43 19.6372 43H25.3498C26.192 43 26.8878 42.2794 26.8878 41.407C26.8878 40.4968 26.192 39.8141 25.3498 39.8141ZM25.3498 41.6726H19.6372C19.4908 41.6726 19.3442 41.5588 19.3442 41.3691C19.3442 41.1794 19.4541 41.0656 19.6372 41.0656H25.3498C25.4963 41.0656 25.6427 41.1794 25.6427 41.3691C25.6427 41.5588 25.4963 41.6726 25.3498 41.6726ZM26.5581 35.9833H18.4287C17.5865 35.9833 16.8908 36.7039 16.8908 37.5763C16.8908 38.4486 17.5865 39.1692 18.4287 39.1692H26.5216C27.4005 39.1313 28.0962 38.4486 28.0962 37.5763C28.0962 36.7039 27.4005 35.9833 26.5581 35.9833ZM26.5581 37.8418H18.4287C18.2823 37.8418 18.1358 37.728 18.1358 37.5383C18.1358 37.3488 18.2457 37.235 18.4287 37.235H26.5216C26.668 37.235 26.8145 37.3488 26.8145 37.5383C26.8145 37.728 26.7047 37.8418 26.5581 37.8418ZM22.5301 10.8372C16.9275 10.8372 12.35 15.5782 12.35 21.3811C12.35 24.4153 13.6317 27.3358 15.7922 29.3081C17.4034 30.9769 17.257 34.5421 17.2203 34.58C17.2203 34.7696 17.257 34.9213 17.4034 35.0731C17.5133 35.1868 17.6964 35.2627 17.8429 35.2627H27.1808C27.3638 35.2627 27.5103 35.1868 27.6202 35.0731C27.73 34.9593 27.8033 34.7696 27.8033 34.58C27.8033 34.5421 27.6202 30.9769 29.2314 29.3081C29.268 29.2701 29.3046 29.2322 29.3413 29.1943C31.4652 27.184 32.7102 24.3394 32.7102 21.3811C32.7102 15.5782 28.1328 10.8372 22.5301 10.8372ZM28.3891 28.3219C28.3525 28.3598 28.2792 28.4357 28.2792 28.4736C26.8511 30.0666 26.5948 32.6836 26.5581 33.9352H18.4654C18.4287 32.6836 18.1725 29.9528 16.6345 28.3219C14.6937 26.5772 13.5584 24.0361 13.5584 21.3432C13.5584 16.2229 17.55 12.0888 22.4934 12.0888C27.437 12.0888 31.4285 16.2229 31.4285 21.3432C31.4285 24.0361 30.33 26.5772 28.3891 28.3219Z" fill="url(#paint0_linear)"/>
<defs>
<linearGradient id="paint0_linear" x1="22.5763" y1="-2.88946" x2="22.75" y2="49.6315" gradientUnits="userSpaceOnUse">
<stop stop-color="#8D85E7"/>
<stop offset="1" stop-color="#FF81FF"/>
</linearGradient>
</defs>
</svg>
