<svg width="645" height="117" viewBox="0 0 645 117" fill="none" xmlns="http://www.w3.org/2000/svg">
<path d="M148.48 88.4C144.373 88.4 140.453 87.7067 136.72 86.32C133.04 84.88 130.16 83.04 128.08 80.8L129.92 77.76C131.893 79.84 134.533 81.5467 137.84 82.88C141.2 84.16 144.72 84.8 148.4 84.8C153.733 84.8 157.76 83.7867 160.48 81.76C163.2 79.7333 164.56 77.0933 164.56 73.84C164.56 71.3333 163.84 69.3333 162.4 67.84C160.96 66.3467 159.173 65.2 157.04 64.4C154.907 63.6 152.027 62.7733 148.4 61.92C144.293 60.9067 140.987 59.92 138.48 58.96C136.027 58 133.92 56.5333 132.16 54.56C130.453 52.5333 129.6 49.84 129.6 46.48C129.6 43.76 130.32 41.28 131.76 39.04C133.2 36.7467 135.387 34.9333 138.32 33.6C141.307 32.2667 145.013 31.6 149.44 31.6C152.533 31.6 155.573 32.0533 158.56 32.96C161.547 33.8667 164.133 35.0933 166.32 36.64L164.8 39.92C162.56 38.3733 160.08 37.2 157.36 36.4C154.693 35.6 152.053 35.2 149.44 35.2C144.267 35.2 140.347 36.24 137.68 38.32C135.013 40.4 133.68 43.0933 133.68 46.4C133.68 48.9067 134.4 50.9067 135.84 52.4C137.28 53.8933 139.067 55.04 141.2 55.84C143.333 56.64 146.24 57.4933 149.92 58.4C154.027 59.4133 157.307 60.4 159.76 61.36C162.213 62.32 164.293 63.7867 166 65.76C167.76 67.68 168.64 70.2933 168.64 73.6C168.64 76.32 167.893 78.8 166.4 81.04C164.96 83.28 162.72 85.0667 159.68 86.4C156.64 87.7333 152.907 88.4 148.48 88.4ZM201.39 45.92C205.283 45.92 208.803 46.8267 211.95 48.64C215.097 50.4533 217.55 52.96 219.31 56.16C221.123 59.36 222.03 63.0133 222.03 67.12C222.03 71.2267 221.123 74.9067 219.31 78.16C217.55 81.36 215.097 83.8667 211.95 85.68C208.803 87.44 205.283 88.32 201.39 88.32C197.71 88.32 194.377 87.4667 191.39 85.76C188.403 84 186.083 81.5733 184.43 78.48V103.52H180.43V46.24H184.27V56.08C185.923 52.88 188.243 50.4 191.23 48.64C194.27 46.8267 197.657 45.92 201.39 45.92ZM201.15 84.72C204.35 84.72 207.23 83.9733 209.79 82.48C212.35 80.9867 214.35 78.9067 215.79 76.24C217.283 73.5733 218.03 70.5333 218.03 67.12C218.03 63.7067 217.283 60.6667 215.79 58C214.35 55.3333 212.35 53.2533 209.79 51.76C207.23 50.2667 204.35 49.52 201.15 49.52C197.95 49.52 195.07 50.2667 192.51 51.76C190.003 53.2533 188.003 55.3333 186.51 58C185.07 60.6667 184.35 63.7067 184.35 67.12C184.35 70.5333 185.07 73.5733 186.51 76.24C188.003 78.9067 190.003 80.9867 192.51 82.48C195.07 83.9733 197.95 84.72 201.15 84.72ZM268.894 68.08H232.974C233.081 71.3333 233.908 74.24 235.454 76.8C237.001 79.3067 239.081 81.2533 241.694 82.64C244.361 84.0267 247.348 84.72 250.654 84.72C253.374 84.72 255.881 84.24 258.174 83.28C260.521 82.2667 262.468 80.8 264.014 78.88L266.334 81.52C264.521 83.7067 262.228 85.3867 259.454 86.56C256.734 87.7333 253.774 88.32 250.574 88.32C246.414 88.32 242.708 87.4133 239.454 85.6C236.201 83.7867 233.641 81.28 231.774 78.08C229.961 74.88 229.054 71.2267 229.054 67.12C229.054 63.0667 229.908 59.44 231.614 56.24C233.374 52.9867 235.774 50.4533 238.814 48.64C241.854 46.8267 245.268 45.92 249.054 45.92C252.841 45.92 256.228 46.8267 259.214 48.64C262.254 50.4 264.628 52.88 266.334 56.08C268.094 59.28 268.974 62.9067 268.974 66.96L268.894 68.08ZM249.054 49.44C246.121 49.44 243.481 50.1067 241.134 51.44C238.788 52.72 236.894 54.56 235.454 56.96C234.068 59.3067 233.268 61.9733 233.054 64.96H265.054C264.894 61.9733 264.094 59.3067 262.654 56.96C261.214 54.6133 259.321 52.7733 256.974 51.44C254.628 50.1067 251.988 49.44 249.054 49.44ZM293.457 45.92C298.63 45.92 302.604 47.2533 305.377 49.92C308.15 52.5333 309.537 56.4 309.537 61.52V88H305.697V80.56C304.364 83.0133 302.417 84.9333 299.857 86.32C297.297 87.6533 294.23 88.32 290.657 88.32C286.017 88.32 282.337 87.2267 279.617 85.04C276.95 82.8533 275.617 79.9733 275.617 76.4C275.617 72.9333 276.844 70.1333 279.297 68C281.804 65.8133 285.777 64.72 291.217 64.72H305.537V61.36C305.537 57.4667 304.47 54.5067 302.337 52.48C300.257 50.4533 297.19 49.44 293.137 49.44C290.364 49.44 287.697 49.92 285.137 50.88C282.63 51.84 280.497 53.12 278.737 54.72L276.737 51.84C278.817 49.9733 281.324 48.5333 284.257 47.52C287.19 46.4533 290.257 45.92 293.457 45.92ZM291.217 85.04C294.684 85.04 297.617 84.24 300.017 82.64C302.47 81.04 304.31 78.72 305.537 75.68V67.84H291.297C287.19 67.84 284.204 68.5867 282.337 70.08C280.524 71.5733 279.617 73.6267 279.617 76.24C279.617 78.96 280.63 81.12 282.657 82.72C284.684 84.2667 287.537 85.04 291.217 85.04ZM340.098 65.68L329.218 75.6V88H325.218V28.64H329.218V70.64L355.938 46.24H361.058L343.058 63.12L362.818 88H357.858L340.098 65.68ZM372.729 32H376.809V84.32H409.049V88H372.729V32ZM452.023 68.08H416.103C416.209 71.3333 417.036 74.24 418.583 76.8C420.129 79.3067 422.209 81.2533 424.823 82.64C427.489 84.0267 430.476 84.72 433.783 84.72C436.503 84.72 439.009 84.24 441.303 83.28C443.649 82.2667 445.596 80.8 447.143 78.88L449.463 81.52C447.649 83.7067 445.356 85.3867 442.583 86.56C439.863 87.7333 436.903 88.32 433.703 88.32C429.543 88.32 425.836 87.4133 422.583 85.6C419.329 83.7867 416.769 81.28 414.903 78.08C413.089 74.88 412.183 71.2267 412.183 67.12C412.183 63.0667 413.036 59.44 414.743 56.24C416.503 52.9867 418.903 50.4533 421.943 48.64C424.983 46.8267 428.396 45.92 432.183 45.92C435.969 45.92 439.356 46.8267 442.343 48.64C445.383 50.4 447.756 52.88 449.463 56.08C451.223 59.28 452.103 62.9067 452.103 66.96L452.023 68.08ZM432.183 49.44C429.249 49.44 426.609 50.1067 424.263 51.44C421.916 52.72 420.023 54.56 418.583 56.96C417.196 59.3067 416.396 61.9733 416.183 64.96H448.183C448.023 61.9733 447.223 59.3067 445.783 56.96C444.343 54.6133 442.449 52.7733 440.103 51.44C437.756 50.1067 435.116 49.44 432.183 49.44ZM476.585 45.92C481.758 45.92 485.732 47.2533 488.505 49.92C491.278 52.5333 492.665 56.4 492.665 61.52V88H488.825V80.56C487.492 83.0133 485.545 84.9333 482.985 86.32C480.425 87.6533 477.358 88.32 473.785 88.32C469.145 88.32 465.465 87.2267 462.745 85.04C460.078 82.8533 458.745 79.9733 458.745 76.4C458.745 72.9333 459.972 70.1333 462.425 68C464.932 65.8133 468.905 64.72 474.345 64.72H488.665V61.36C488.665 57.4667 487.598 54.5067 485.465 52.48C483.385 50.4533 480.318 49.44 476.265 49.44C473.492 49.44 470.825 49.92 468.265 50.88C465.758 51.84 463.625 53.12 461.865 54.72L459.865 51.84C461.945 49.9733 464.452 48.5333 467.385 47.52C470.318 46.4533 473.385 45.92 476.585 45.92ZM474.345 85.04C477.812 85.04 480.745 84.24 483.145 82.64C485.598 81.04 487.438 78.72 488.665 75.68V67.84H474.425C470.318 67.84 467.332 68.5867 465.465 70.08C463.652 71.5733 462.745 73.6267 462.745 76.24C462.745 78.96 463.758 81.12 465.785 82.72C467.812 84.2667 470.665 85.04 474.345 85.04ZM512.186 55.36C513.466 52.32 515.466 50 518.186 48.4C520.906 46.7467 524.212 45.92 528.106 45.92V49.84L527.146 49.76C522.506 49.76 518.879 51.2267 516.266 54.16C513.652 57.04 512.346 61.0667 512.346 66.24V88H508.346V46.24H512.186V55.36ZM558.727 45.92C563.954 45.92 568.087 47.44 571.127 50.48C574.167 53.52 575.687 57.8933 575.687 63.6V88H571.687V63.92C571.687 59.2267 570.487 55.6533 568.087 53.2C565.74 50.7467 562.434 49.52 558.167 49.52C553.26 49.52 549.394 50.9867 546.567 53.92C543.74 56.8533 542.327 60.8 542.327 65.76V88H538.327V46.24H542.167V55.28C543.607 52.3467 545.74 50.0533 548.567 48.4C551.447 46.7467 554.834 45.92 558.727 45.92ZM624.094 46.24L602.654 93.68C601.054 97.36 599.187 99.9733 597.054 101.52C594.974 103.067 592.494 103.84 589.614 103.84C587.694 103.84 585.88 103.52 584.174 102.88C582.52 102.24 581.107 101.307 579.934 100.08L581.934 97.04C584.067 99.2267 586.654 100.32 589.694 100.32C591.72 100.32 593.454 99.76 594.894 98.64C596.334 97.52 597.667 95.6 598.894 92.88L601.134 87.84L582.334 46.24H586.574L603.294 83.6L620.014 46.24H624.094Z" fill="black"/>
<path d="M61.3811 60.6021C60.0994 58.6985 57.6626 57.3815 54.814 57.3815C54.3508 57.3815 53.9753 57.6976 53.9753 58.0876C53.9753 58.4776 54.3508 58.7938 54.814 58.7938C57.0199 58.7938 58.9207 59.8114 59.9217 61.2985C60.1504 61.6383 60.6626 61.7568 61.065 61.5647C61.468 61.3724 61.6094 60.9414 61.3811 60.6021V60.6021ZM61.5237 63.0306C58.3413 63.0306 55.6527 65.3913 55.6527 68.1855C55.6527 68.5755 56.0283 68.8916 56.4914 68.8916C56.9546 68.8916 57.3301 68.5755 57.3301 68.1855C57.3301 66.1918 59.2897 64.4429 61.5237 64.4429C61.9869 64.4429 62.3624 64.1268 62.3624 63.7368C62.3624 63.3468 61.9869 63.0306 61.5237 63.0306V63.0306ZM59.8463 54.3451C58.7236 54.3451 57.7705 53.7226 57.4476 52.8662C60.2315 52.4805 62.3624 50.4412 62.3624 47.9898C62.3624 47.5998 61.9869 47.2836 61.5237 47.2836C61.0606 47.2836 60.685 47.5998 60.685 47.9898C60.685 49.9366 58.8038 51.5205 56.4914 51.5205C55.4585 51.5205 54.4657 51.2012 53.6957 50.6214C53.3506 50.3614 52.8203 50.3862 52.5115 50.6769C52.2026 50.9675 52.2322 51.4139 52.5774 51.674C53.4638 52.3416 54.5617 52.7618 55.728 52.8903C56.0981 54.5209 57.8034 55.7574 59.8463 55.7574C60.3094 55.7574 60.685 55.4412 60.685 55.0512C60.685 54.6612 60.3094 54.3451 59.8463 54.3451V54.3451ZM44.7494 57.3815C41.9073 57.3815 39.4671 58.6939 38.1822 60.6021C37.9539 60.9414 38.0953 61.3723 38.4983 61.5646C38.9013 61.7569 39.413 61.6378 39.6415 61.2985C40.6425 59.8117 42.5419 58.7938 44.7494 58.7938C45.2126 58.7938 45.5881 58.4776 45.5881 58.0876C45.5881 57.6976 45.2126 57.3815 44.7494 57.3815V57.3815ZM38.0396 63.0306C37.5764 63.0306 37.2009 63.3468 37.2009 63.7368C37.2009 64.1268 37.5764 64.4429 38.0396 64.4429C40.2737 64.4429 42.2332 66.1918 42.2332 68.1855C42.2332 68.5755 42.6087 68.8916 43.0719 68.8916C43.5352 68.8916 43.9107 68.5755 43.9107 68.1855C43.9107 65.3913 41.2221 63.0306 38.0396 63.0306V63.0306ZM47.0519 50.6769C46.7431 50.3862 46.2129 50.3614 45.8676 50.6214C43.178 52.6469 38.8784 51.0281 38.8784 47.9898C38.8784 47.5998 38.5029 47.2836 38.0396 47.2836C37.5764 47.2836 37.2009 47.5998 37.2009 47.9898C37.2009 50.4412 39.3319 52.4805 42.1158 52.8662C41.7929 53.7226 40.8398 54.3451 39.7171 54.3451C39.2539 54.3451 38.8784 54.6612 38.8784 55.0512C38.8784 55.4412 39.2539 55.7574 39.7171 55.7574C41.7599 55.7574 43.4653 54.5209 43.8354 52.8903C45.0018 52.7618 46.0996 52.3416 46.986 51.674C47.3312 51.4139 47.3607 50.9675 47.0519 50.6769V50.6769ZM67.9922 56.667C68.712 55.7574 69.0722 54.6224 69.0722 53.6389C69.0722 52.1563 68.2899 50.7788 66.9475 49.8448C67.2446 49.2471 67.3947 48.6255 67.3947 47.9898C67.3947 46.0228 66.0313 44.1905 64.0042 43.3349C64.3118 41.1872 62.6496 39.2186 60.1864 38.7165C59.2223 36.8401 57.0764 35.5617 54.814 35.5617C52.708 35.5617 50.8191 36.5959 49.7817 38.1049C48.7442 36.5959 46.8553 35.5617 44.7494 35.5617C42.4868 35.5617 40.3409 36.8401 39.377 38.7166C36.899 39.2219 35.2524 41.2003 35.5591 43.3349C33.5321 44.1905 32.1686 46.0228 32.1686 47.9898C32.1686 48.6255 32.3188 49.2471 32.6158 49.8448C31.2735 50.7789 30.4912 52.1563 30.4912 53.6389C30.4912 54.6275 30.8544 55.761 31.5712 56.667C30.8707 57.4995 30.4912 58.4862 30.4912 59.4999C30.4912 60.8145 31.1243 62.0668 32.244 62.9966C31.6683 65.9265 34.4436 68.8916 38.0396 68.8916C38.0656 68.8916 38.0912 68.8913 38.1163 68.8906C39.3085 70.6223 41.5216 71.7162 43.9107 71.7162C46.4006 71.7162 48.6256 70.4579 49.7817 68.6449C50.9378 70.4579 53.1627 71.7162 55.6527 71.7162C58.0418 71.7162 60.2548 70.6223 61.4471 68.8906C61.4722 68.8913 61.4977 68.8916 61.5237 68.8916C64.7062 68.8916 67.3947 66.531 67.3947 63.7368C67.3947 63.4989 67.3699 63.2542 67.3193 62.9966C68.4391 62.0668 69.0722 60.8146 69.0722 59.4999C69.0722 58.4862 68.6927 57.4995 67.9922 56.667V56.667ZM48.943 46.2513C48.4491 46.0102 47.8764 45.8714 47.2655 45.8714C46.8023 45.8714 46.4268 46.1875 46.4268 46.5775C46.4268 46.9675 46.8023 47.2836 47.2655 47.2836C48.1905 47.2836 48.943 47.9172 48.943 48.6959V62.1246C47.7125 60.9495 45.9133 60.2061 43.9107 60.2061C43.4474 60.2061 43.0719 60.5222 43.0719 60.9122C43.0719 61.3022 43.4474 61.6184 43.9107 61.6184C46.6855 61.6184 48.943 63.519 48.943 65.8552C48.943 68.2666 46.6384 70.3039 43.9107 70.3039C41.9689 70.3039 40.1813 69.3371 39.3565 67.8409C39.2045 67.5651 38.8601 67.4025 38.501 67.4366C38.4417 67.4423 38.3828 67.4489 38.3238 67.4557C35.9368 67.7305 33.2487 65.4548 33.9764 62.909C34.0511 62.6476 33.9429 62.3732 33.6974 62.2011C32.7259 61.5205 32.1686 60.5359 32.1686 59.4999C32.1686 58.8594 32.3838 58.2325 32.7841 57.6829C33.79 58.377 35.0413 58.7938 36.3622 58.7938C36.8254 58.7938 37.2009 58.4776 37.2009 58.0876C37.2009 57.6976 36.8254 57.3815 36.3622 57.3815C34.086 57.3815 32.1686 55.6324 32.1686 53.6389C32.1686 52.4297 32.9007 51.3172 34.1272 50.6631C34.505 50.4616 34.6286 50.0459 34.4079 49.7183C34.0351 49.1647 33.8461 48.5832 33.8461 47.9898C33.8461 46.0839 35.6914 44.2472 38.0396 44.2472C40.2737 44.2472 42.2332 45.9961 42.2332 47.9898C42.2332 48.3798 42.6087 48.6959 43.0719 48.6959C43.5352 48.6959 43.9107 48.3798 43.9107 47.9898C43.9107 45.1956 41.2221 42.8349 38.0396 42.8349C37.7588 42.8349 37.4796 42.8541 37.203 42.8903C37.203 42.8717 37.2009 42.8537 37.2009 42.8349C37.2009 41.259 38.7204 40.0104 40.5558 40.0104C41.4517 40.0104 42.2945 40.3042 42.9287 40.8376C43.2564 41.1132 43.7874 41.1129 44.1148 40.8371C44.4422 40.5612 44.4419 40.1141 44.114 39.8385C43.3488 39.195 42.381 38.7846 41.3322 38.6486C42.0719 37.7242 43.3018 36.974 44.7491 36.974C46.9831 36.974 48.9427 38.7228 48.9427 40.7165L48.943 46.2513ZM63.2012 58.7938C64.5221 58.7938 65.7734 58.3769 66.7794 57.6831C67.1796 58.2327 67.3947 58.8595 67.3947 59.4999C67.3947 60.5359 66.8375 61.5205 65.866 62.2011C65.6204 62.3732 65.5123 62.6476 65.5871 62.909C65.676 63.22 65.7173 63.483 65.7173 63.7367C65.7173 65.9286 63.3626 67.7 61.2397 67.4557C61.1807 67.4489 61.1217 67.4422 61.0624 67.4366C60.7028 67.4023 60.3588 67.5651 60.2069 67.8409C59.3822 69.3371 57.5944 70.3039 55.6527 70.3039C52.9249 70.3039 50.6204 68.2666 50.6204 65.8552C50.6204 63.519 52.8779 61.6184 55.6527 61.6184C56.1158 61.6184 56.4914 61.3022 56.4914 60.9122C56.4914 60.5222 56.1158 60.2061 55.6527 60.2061C53.6501 60.2061 51.8509 60.9495 50.6204 62.1246V48.6959C50.6204 47.9172 51.3729 47.2836 52.2978 47.2836C52.761 47.2836 53.1366 46.9675 53.1366 46.5775C53.1366 46.1875 52.761 45.8714 52.2978 45.8714C51.687 45.8714 51.1142 46.0102 50.6204 46.2513V40.7165C50.6204 38.7228 52.58 36.974 54.814 36.974C56.2613 36.974 57.4912 37.7242 58.2308 38.6485C57.1821 38.7845 56.2144 39.1949 55.4491 39.8384C55.1214 40.114 55.1211 40.5611 55.4483 40.8371C55.7757 41.113 56.3068 41.1132 56.6344 40.8376C57.2689 40.3042 58.1116 40.0104 59.0075 40.0104C60.8521 40.0104 62.3624 41.2664 62.3624 42.8349C62.3624 42.8536 62.3607 42.8717 62.3603 42.8903C62.0837 42.8541 61.8045 42.8349 61.5237 42.8349C58.3412 42.8349 55.6526 45.1956 55.6526 47.9898C55.6526 48.3798 56.0282 48.6959 56.4913 48.6959C56.9545 48.6959 57.3301 48.3798 57.3301 47.9898C57.3301 45.9961 59.2896 44.2472 61.5237 44.2472C63.8705 44.2472 65.7172 46.083 65.7172 47.9898C65.7172 48.5832 65.5282 49.1647 65.1554 49.7183C64.9348 50.0459 65.0583 50.4616 65.4362 50.6631C66.6625 51.3172 67.3947 52.4297 67.3947 53.6389C67.3947 55.6395 65.4706 57.3815 63.2011 57.3815C62.7379 57.3815 62.3624 57.6976 62.3624 58.0876C62.3624 58.4776 62.7379 58.7938 63.2011 58.7938H63.2012ZM45.5881 41.4227C45.1251 41.4227 44.7494 41.739 44.7494 42.1288C44.7494 42.5186 45.1251 42.8349 45.5881 42.8349C46.0511 42.8349 46.4268 42.5186 46.4268 42.1288C46.4268 41.739 46.0511 41.4227 45.5881 41.4227V41.4227ZM53.9753 41.4227C53.5123 41.4227 53.1366 41.739 53.1366 42.1288C53.1366 42.5186 53.5123 42.8349 53.9753 42.8349C54.4382 42.8349 54.814 42.5186 54.814 42.1288C54.814 41.739 54.4382 41.4227 53.9753 41.4227V41.4227ZM97.9911 28.6952C97.5553 27.8354 96.3568 27.513 95.4852 27.9429L84.3722 33.8539C83.5006 34.2837 83.1738 35.4659 83.6096 36.3257C83.9364 36.9706 84.5901 37.293 85.2439 37.293C85.5707 37.293 85.8976 37.1855 86.1155 37.078L97.2284 31.167C98.1 30.7372 98.4269 29.555 97.9911 28.6952ZM13.7723 33.8539L2.76829 27.9429C1.89669 27.513 0.698225 27.8354 0.262427 28.6952C-0.282328 29.555 0.0445236 30.7372 1.02508 31.167L12.0291 37.078C12.3559 37.1855 12.5738 37.293 12.9007 37.293C13.5544 37.293 14.2081 36.9706 14.5349 36.3257C14.9707 35.4659 14.6439 34.2837 13.7723 33.8539ZM26.9553 22.4618C27.2822 22.4618 27.609 22.3543 27.9359 22.1394C28.8075 21.602 29.0254 20.4198 28.4806 19.56L21.7257 9.13517C21.1809 8.27539 19.9825 8.06044 19.1109 8.59781C18.2393 9.13517 18.0214 10.3174 18.5661 11.1771L25.321 21.602C25.7569 22.2468 26.3016 22.4618 26.9553 22.4618V22.4618ZM79.9053 9.24264C79.0337 8.59781 77.9442 8.92022 77.3994 9.67253L70.4266 19.9899C69.7729 20.8497 69.9908 22.0319 70.8624 22.5692C71.1892 22.7842 71.5161 22.8917 71.8429 22.8917C72.4966 22.8917 73.0414 22.5692 73.3682 22.0319L80.3411 11.7145C80.9948 10.9622 80.7769 9.78 79.9053 9.24264ZM49.0723 16.1209C50.1618 16.1209 50.9244 15.2611 50.9244 14.2939V1.82703C50.9244 0.859779 50.0528 0 49.0723 0C48.0917 0 47.2201 0.859779 47.2201 1.82703V14.2939C47.2201 15.2611 48.0917 16.1209 49.0723 16.1209V16.1209ZM57.5704 107.15H40.5741C38.0683 107.15 35.9982 109.192 35.9982 111.664C35.9982 114.136 38.0683 116.178 40.5741 116.178H57.5704C60.0763 116.178 62.1463 114.136 62.1463 111.664C62.1463 109.085 60.0763 107.15 57.5704 107.15V107.15ZM57.5704 112.416H40.5741C40.1383 112.416 39.7025 112.094 39.7025 111.557C39.7025 111.019 40.0294 110.697 40.5741 110.697H57.5704C58.0062 110.697 58.442 111.019 58.442 111.557C58.442 112.094 58.0062 112.416 57.5704 112.416ZM61.1658 96.2954H36.9788C34.4729 96.2954 32.4028 98.3374 32.4028 100.809C32.4028 103.281 34.4729 105.323 36.9788 105.323H61.0568C63.6716 105.216 65.7417 103.281 65.7417 100.809C65.7417 98.3374 63.6716 96.2954 61.1658 96.2954V96.2954ZM61.1658 101.562H36.9788C36.543 101.562 36.1072 101.239 36.1072 100.702C36.1072 100.164 36.434 99.842 36.9788 99.842H61.0568C61.4926 99.842 61.9284 100.164 61.9284 100.702C61.9284 101.239 61.6016 101.562 61.1658 101.562V101.562ZM49.1812 25.0411C32.5118 25.0411 18.893 38.4752 18.893 54.9185C18.893 63.5163 22.7062 71.7917 29.1343 77.3803C33.9281 82.109 33.4923 92.2115 33.3834 92.3189C33.3834 92.8563 33.4923 93.2862 33.9281 93.7161C34.255 94.0385 34.7997 94.2535 35.2356 94.2535H63.0179C63.5627 94.2535 63.9985 94.0385 64.3253 93.7161C64.6522 93.3937 64.8701 92.8563 64.8701 92.3189C64.8701 92.2115 64.3253 82.109 69.1192 77.3803C69.2281 77.2728 69.3371 77.1653 69.446 77.0578C75.7652 71.3618 79.4695 63.3013 79.4695 54.9185C79.4695 38.4752 65.8507 25.0411 49.1812 25.0411V25.0411ZM66.6133 74.586C66.5044 74.6934 66.2865 74.9084 66.2865 75.0159C62.0374 79.5297 61.2747 86.9453 61.1658 90.4919H37.0877C36.9788 86.9453 36.2161 79.2073 31.6402 74.586C25.8658 69.6422 22.4883 62.4416 22.4883 54.811C22.4883 40.3022 34.3639 28.5877 49.0723 28.5877C63.7806 28.5877 75.6562 40.3022 75.6562 54.811C75.6562 62.4416 72.3877 69.6422 66.6133 74.586V74.586Z" fill="url(#paint0_linear)"/>
<defs>
<linearGradient id="paint0_linear" x1="49.3186" y1="-13.8548" x2="49.7875" y2="134.969" gradientUnits="userSpaceOnUse">
<stop stop-color="#8D85E7"/>
<stop offset="1" stop-color="#FF81FF"/>
</linearGradient>
</defs>
</svg>
