<svg width="121" height="21" viewBox="0 0 121 21" fill="none" xmlns="http://www.w3.org/2000/svg">
<path d="M24.896 17.08C24.0747 17.08 23.2907 16.9413 22.544 16.664C21.808 16.376 21.232 16.008 20.816 15.56L21.184 14.952C21.5787 15.368 22.1067 15.7093 22.768 15.976C23.44 16.232 24.144 16.36 24.88 16.36C25.9467 16.36 26.752 16.1573 27.296 15.752C27.84 15.3467 28.112 14.8187 28.112 14.168C28.112 13.6667 27.968 13.2667 27.68 12.968C27.392 12.6693 27.0347 12.44 26.608 12.28C26.1813 12.12 25.6053 11.9547 24.88 11.784C24.0587 11.5813 23.3973 11.384 22.896 11.192C22.4053 11 21.984 10.7067 21.632 10.312C21.2907 9.90667 21.12 9.368 21.12 8.696C21.12 8.152 21.264 7.656 21.552 7.208C21.84 6.74933 22.2773 6.38667 22.864 6.12C23.4613 5.85333 24.2027 5.72 25.088 5.72C25.7067 5.72 26.3147 5.81067 26.912 5.992C27.5093 6.17333 28.0267 6.41867 28.464 6.728L28.16 7.384C27.712 7.07467 27.216 6.84 26.672 6.68C26.1387 6.52 25.6107 6.44 25.088 6.44C24.0533 6.44 23.2693 6.648 22.736 7.064C22.2027 7.48 21.936 8.01867 21.936 8.68C21.936 9.18133 22.08 9.58133 22.368 9.88C22.656 10.1787 23.0133 10.408 23.44 10.568C23.8667 10.728 24.448 10.8987 25.184 11.08C26.0053 11.2827 26.6613 11.48 27.152 11.672C27.6427 11.864 28.0587 12.1573 28.4 12.552C28.752 12.936 28.928 13.4587 28.928 14.12C28.928 14.664 28.7787 15.16 28.48 15.608C28.192 16.056 27.744 16.4133 27.136 16.68C26.528 16.9467 25.7813 17.08 24.896 17.08ZM35.478 8.584C36.2567 8.584 36.9607 8.76533 37.59 9.128C38.2193 9.49067 38.71 9.992 39.062 10.632C39.4247 11.272 39.606 12.0027 39.606 12.824C39.606 13.6453 39.4247 14.3813 39.062 15.032C38.71 15.672 38.2193 16.1733 37.59 16.536C36.9607 16.888 36.2567 17.064 35.478 17.064C34.742 17.064 34.0753 16.8933 33.478 16.552C32.8807 16.2 32.4167 15.7147 32.086 15.096V20.104H31.286V8.648H32.054V10.616C32.3847 9.976 32.8487 9.48 33.446 9.128C34.054 8.76533 34.7313 8.584 35.478 8.584ZM35.43 16.344C36.07 16.344 36.646 16.1947 37.158 15.896C37.67 15.5973 38.07 15.1813 38.358 14.648C38.6567 14.1147 38.806 13.5067 38.806 12.824C38.806 12.1413 38.6567 11.5333 38.358 11C38.07 10.4667 37.67 10.0507 37.158 9.752C36.646 9.45333 36.07 9.304 35.43 9.304C34.79 9.304 34.214 9.45333 33.702 9.752C33.2007 10.0507 32.8007 10.4667 32.502 11C32.214 11.5333 32.07 12.1413 32.07 12.824C32.07 13.5067 32.214 14.1147 32.502 14.648C32.8007 15.1813 33.2007 15.5973 33.702 15.896C34.214 16.1947 34.79 16.344 35.43 16.344ZM48.9789 13.016H41.7949C41.8162 13.6667 41.9815 14.248 42.2909 14.76C42.6002 15.2613 43.0162 15.6507 43.5389 15.928C44.0722 16.2053 44.6695 16.344 45.3309 16.344C45.8749 16.344 46.3762 16.248 46.8349 16.056C47.3042 15.8533 47.6935 15.56 48.0029 15.176L48.4669 15.704C48.1042 16.1413 47.6455 16.4773 47.0909 16.712C46.5469 16.9467 45.9549 17.064 45.3149 17.064C44.4829 17.064 43.7415 16.8827 43.0909 16.52C42.4402 16.1573 41.9282 15.656 41.5549 15.016C41.1922 14.376 41.0109 13.6453 41.0109 12.824C41.0109 12.0133 41.1815 11.288 41.5229 10.648C41.8749 9.99733 42.3549 9.49067 42.9629 9.128C43.5709 8.76533 44.2535 8.584 45.0109 8.584C45.7682 8.584 46.4455 8.76533 47.0429 9.128C47.6509 9.48 48.1255 9.976 48.4669 10.616C48.8189 11.256 48.9949 11.9813 48.9949 12.792L48.9789 13.016ZM45.0109 9.288C44.4242 9.288 43.8962 9.42133 43.4269 9.688C42.9575 9.944 42.5789 10.312 42.2909 10.792C42.0135 11.2613 41.8535 11.7947 41.8109 12.392H48.2109C48.1789 11.7947 48.0189 11.2613 47.7309 10.792C47.4429 10.3227 47.0642 9.95467 46.5949 9.688C46.1255 9.42133 45.5975 9.288 45.0109 9.288ZM53.8914 8.584C54.926 8.584 55.7207 8.85067 56.2754 9.384C56.83 9.90667 57.1074 10.68 57.1074 11.704V17H56.3394V15.512C56.0727 16.0027 55.6834 16.3867 55.1714 16.664C54.6594 16.9307 54.046 17.064 53.3314 17.064C52.4034 17.064 51.6674 16.8453 51.1234 16.408C50.59 15.9707 50.3234 15.3947 50.3234 14.68C50.3234 13.9867 50.5687 13.4267 51.0594 13C51.5607 12.5627 52.3554 12.344 53.4434 12.344H56.3074V11.672C56.3074 10.8933 56.094 10.3013 55.6674 9.896C55.2514 9.49067 54.638 9.288 53.8274 9.288C53.2727 9.288 52.7394 9.384 52.2274 9.576C51.726 9.768 51.2994 10.024 50.9474 10.344L50.5474 9.768C50.9634 9.39467 51.4647 9.10667 52.0514 8.904C52.638 8.69067 53.2514 8.584 53.8914 8.584ZM53.4434 16.408C54.1367 16.408 54.7234 16.248 55.2034 15.928C55.694 15.608 56.062 15.144 56.3074 14.536V12.968H53.4594C52.638 12.968 52.0407 13.1173 51.6674 13.416C51.3047 13.7147 51.1234 14.1253 51.1234 14.648C51.1234 15.192 51.326 15.624 51.7314 15.944C52.1367 16.2533 52.7074 16.408 53.4434 16.408ZM63.2195 12.536L61.0435 14.52V17H60.2435V5.128H61.0435V13.528L66.3875 8.648H67.4115L63.8115 12.024L67.7635 17H66.7715L63.2195 12.536ZM69.7458 5.8H70.5618V16.264H77.0098V17H69.7458V5.8ZM85.6045 13.016H78.4205C78.4418 13.6667 78.6072 14.248 78.9165 14.76C79.2258 15.2613 79.6418 15.6507 80.1645 15.928C80.6978 16.2053 81.2952 16.344 81.9565 16.344C82.5005 16.344 83.0018 16.248 83.4605 16.056C83.9298 15.8533 84.3192 15.56 84.6285 15.176L85.0925 15.704C84.7298 16.1413 84.2712 16.4773 83.7165 16.712C83.1725 16.9467 82.5805 17.064 81.9405 17.064C81.1085 17.064 80.3672 16.8827 79.7165 16.52C79.0658 16.1573 78.5538 15.656 78.1805 15.016C77.8178 14.376 77.6365 13.6453 77.6365 12.824C77.6365 12.0133 77.8072 11.288 78.1485 10.648C78.5005 9.99733 78.9805 9.49067 79.5885 9.128C80.1965 8.76533 80.8792 8.584 81.6365 8.584C82.3938 8.584 83.0712 8.76533 83.6685 9.128C84.2765 9.48 84.7512 9.976 85.0925 10.616C85.4445 11.256 85.6205 11.9813 85.6205 12.792L85.6045 13.016ZM81.6365 9.288C81.0498 9.288 80.5218 9.42133 80.0525 9.688C79.5832 9.944 79.2045 10.312 78.9165 10.792C78.6392 11.2613 78.4792 11.7947 78.4365 12.392H84.8365C84.8045 11.7947 84.6445 11.2613 84.3565 10.792C84.0685 10.3227 83.6898 9.95467 83.2205 9.688C82.7512 9.42133 82.2232 9.288 81.6365 9.288ZM90.517 8.584C91.5517 8.584 92.3463 8.85067 92.901 9.384C93.4557 9.90667 93.733 10.68 93.733 11.704V17H92.965V15.512C92.6983 16.0027 92.309 16.3867 91.797 16.664C91.285 16.9307 90.6717 17.064 89.957 17.064C89.029 17.064 88.293 16.8453 87.749 16.408C87.2157 15.9707 86.949 15.3947 86.949 14.68C86.949 13.9867 87.1943 13.4267 87.685 13C88.1863 12.5627 88.981 12.344 90.069 12.344H92.933V11.672C92.933 10.8933 92.7197 10.3013 92.293 9.896C91.877 9.49067 91.2637 9.288 90.453 9.288C89.8983 9.288 89.365 9.384 88.853 9.576C88.3517 9.768 87.925 10.024 87.573 10.344L87.173 9.768C87.589 9.39467 88.0903 9.10667 88.677 8.904C89.2637 8.69067 89.877 8.584 90.517 8.584ZM90.069 16.408C90.7623 16.408 91.349 16.248 91.829 15.928C92.3197 15.608 92.6877 15.144 92.933 14.536V12.968H90.085C89.2637 12.968 88.6663 13.1173 88.293 13.416C87.9303 13.7147 87.749 14.1253 87.749 14.648C87.749 15.192 87.9517 15.624 88.357 15.944C88.7623 16.2533 89.333 16.408 90.069 16.408ZM97.6371 10.472C97.8931 9.864 98.2931 9.4 98.8371 9.08C99.3811 8.74933 100.042 8.584 100.821 8.584V9.368L100.629 9.352C99.7011 9.352 98.9758 9.64533 98.4531 10.232C97.9305 10.808 97.6691 11.6133 97.6691 12.648V17H96.8691V8.648H97.6371V10.472ZM106.945 8.584C107.991 8.584 108.817 8.888 109.425 9.496C110.033 10.104 110.337 10.9787 110.337 12.12V17H109.537V12.184C109.537 11.2453 109.297 10.5307 108.817 10.04C108.348 9.54933 107.687 9.304 106.833 9.304C105.852 9.304 105.079 9.59733 104.513 10.184C103.948 10.7707 103.665 11.56 103.665 12.552V17H102.865V8.648H103.633V10.456C103.921 9.86933 104.348 9.41067 104.913 9.08C105.489 8.74933 106.167 8.584 106.945 8.584ZM120.019 8.648L115.731 18.136C115.411 18.872 115.037 19.3947 114.611 19.704C114.195 20.0133 113.699 20.168 113.123 20.168C112.739 20.168 112.376 20.104 112.035 19.976C111.704 19.848 111.421 19.6613 111.187 19.416L111.587 18.808C112.013 19.2453 112.531 19.464 113.139 19.464C113.544 19.464 113.891 19.352 114.179 19.128C114.467 18.904 114.733 18.52 114.979 17.976L115.427 16.968L111.667 8.648H112.515L115.859 16.12L119.203 8.648H120.019Z" fill="black"/>
<path d="M10.6279 11.1264C10.406 10.7968 9.98403 10.5688 9.4908 10.5688C9.41061 10.5688 9.34558 10.6235 9.34558 10.6911C9.34558 10.7586 9.41061 10.8133 9.4908 10.8133C9.87275 10.8133 10.2019 10.9895 10.3752 11.247C10.4148 11.3058 10.5035 11.3264 10.5731 11.2931C10.6429 11.2598 10.6674 11.1852 10.6279 11.1264V11.1264ZM10.6526 11.5469C10.1015 11.5469 9.63602 11.9557 9.63602 12.4395C9.63602 12.507 9.70105 12.5617 9.78124 12.5617C9.86143 12.5617 9.92646 12.507 9.92646 12.4395C9.92646 12.0943 10.2658 11.7915 10.6526 11.7915C10.7328 11.7915 10.7978 11.7367 10.7978 11.6692C10.7978 11.6017 10.7328 11.5469 10.6526 11.5469V11.5469ZM10.3621 10.0431C10.1677 10.0431 10.0027 9.93529 9.94679 9.787C10.4288 9.72022 10.7978 9.36712 10.7978 8.94267C10.7978 8.87515 10.7328 8.82041 10.6526 8.82041C10.5724 8.82041 10.5073 8.87515 10.5073 8.94267C10.5073 9.27976 10.1816 9.554 9.78124 9.554C9.60239 9.554 9.43049 9.49871 9.29718 9.39832C9.23742 9.3533 9.1456 9.35759 9.09213 9.40793C9.03864 9.45826 9.04377 9.53555 9.10354 9.58057C9.25703 9.69617 9.44712 9.76893 9.64906 9.79117C9.71313 10.0735 10.0084 10.2876 10.3621 10.2876C10.4423 10.2876 10.5073 10.2329 10.5073 10.1653C10.5073 10.0978 10.4423 10.0431 10.3621 10.0431V10.0431ZM7.74816 10.5688C7.25607 10.5688 6.83356 10.796 6.61109 11.1264C6.57154 11.1852 6.59604 11.2598 6.6658 11.2931C6.73558 11.3264 6.8242 11.3058 6.86375 11.247C7.03707 10.9896 7.36594 10.8133 7.74816 10.8133C7.82836 10.8133 7.89338 10.7586 7.89338 10.6911C7.89338 10.6235 7.82836 10.5688 7.74816 10.5688V10.5688ZM6.5864 11.5469C6.50619 11.5469 6.44118 11.6017 6.44118 11.6692C6.44118 11.7367 6.50619 11.7915 6.5864 11.7915C6.97321 11.7915 7.3125 12.0943 7.3125 12.4395C7.3125 12.507 7.37751 12.5617 7.45772 12.5617C7.53792 12.5617 7.60294 12.507 7.60294 12.4395C7.60294 11.9557 7.13742 11.5469 6.5864 11.5469V11.5469ZM8.14683 9.40793C8.09336 9.35761 8.00157 9.3533 7.94178 9.39832C7.47609 9.74904 6.73162 9.46875 6.73162 8.94267C6.73162 8.87515 6.6666 8.82041 6.5864 8.82041C6.50619 8.82041 6.44118 8.87515 6.44118 8.94267C6.44118 9.36712 6.81014 9.72022 7.29217 9.787C7.23626 9.93529 7.07123 10.0431 6.87684 10.0431C6.79663 10.0431 6.73162 10.0978 6.73162 10.1653C6.73162 10.2329 6.79663 10.2876 6.87684 10.2876C7.23055 10.2876 7.52583 10.0735 7.5899 9.79117C7.79186 9.76893 7.98194 9.69617 8.13542 9.58057C8.19519 9.53555 8.2003 9.45826 8.14683 9.40793V9.40793ZM11.7725 10.4451C11.8972 10.2876 11.9595 10.0911 11.9595 9.9208C11.9595 9.66409 11.8241 9.42559 11.5917 9.26385C11.6431 9.16037 11.6691 9.05274 11.6691 8.94267C11.6691 8.6021 11.433 8.28485 11.0821 8.1367C11.1353 7.76484 10.8475 7.42399 10.421 7.33705C10.2541 7.01215 9.88253 6.7908 9.4908 6.7908C9.12615 6.7908 8.7991 6.96987 8.61948 7.23115C8.43984 6.96987 8.11279 6.7908 7.74816 6.7908C7.3564 6.7908 6.98485 7.01215 6.81795 7.33706C6.3889 7.42455 6.1038 7.7671 6.15691 8.1367C5.80594 8.28484 5.56986 8.6021 5.56986 8.94267C5.56986 9.05274 5.59585 9.16037 5.64729 9.26385C5.41486 9.4256 5.27942 9.66409 5.27942 9.9208C5.27942 10.092 5.3423 10.2882 5.46642 10.4451C5.34513 10.5892 5.27942 10.7601 5.27942 10.9356C5.27942 11.1632 5.38903 11.38 5.58291 11.541C5.48323 12.0483 5.96377 12.5617 6.5864 12.5617C6.5909 12.5617 6.59533 12.5617 6.59967 12.5616C6.8061 12.8614 7.18928 13.0508 7.60294 13.0508C8.03407 13.0508 8.41931 12.8329 8.61948 12.519C8.81965 12.8329 9.20489 13.0508 9.63602 13.0508C10.0497 13.0508 10.4329 12.8614 10.6393 12.5616C10.6436 12.5617 10.6481 12.5617 10.6526 12.5617C11.2036 12.5617 11.6691 12.153 11.6691 11.6692C11.6691 11.628 11.6648 11.5856 11.656 11.541C11.8499 11.38 11.9595 11.1632 11.9595 10.9356C11.9595 10.7601 11.8938 10.5892 11.7725 10.4451V10.4451ZM8.47426 8.64167C8.38875 8.59992 8.28958 8.57588 8.18382 8.57588C8.10361 8.57588 8.0386 8.63062 8.0386 8.69814C8.0386 8.76567 8.10361 8.82041 8.18382 8.82041C8.34397 8.82041 8.47426 8.93011 8.47426 9.06494V11.3901C8.26121 11.1866 7.94968 11.0579 7.60294 11.0579C7.52273 11.0579 7.45772 11.1126 7.45772 11.1801C7.45772 11.2477 7.52273 11.3024 7.60294 11.3024C8.08339 11.3024 8.47426 11.6315 8.47426 12.036C8.47426 12.4535 8.07524 12.8063 7.60294 12.8063C7.26673 12.8063 6.95722 12.6389 6.81441 12.3798C6.78808 12.3321 6.72845 12.3039 6.66628 12.3098C6.65602 12.3108 6.64581 12.3119 6.6356 12.3131C6.2223 12.3607 5.75687 11.9667 5.88286 11.5259C5.8958 11.4806 5.87707 11.4331 5.83456 11.4033C5.66634 11.2855 5.56986 11.115 5.56986 10.9356C5.56986 10.8247 5.60711 10.7162 5.67642 10.621C5.8506 10.7412 6.06725 10.8133 6.29596 10.8133C6.37616 10.8133 6.44118 10.7586 6.44118 10.6911C6.44118 10.6235 6.37616 10.5688 6.29596 10.5688C5.90184 10.5688 5.56986 10.266 5.56986 9.9208C5.56986 9.71142 5.69662 9.5188 5.90898 9.40555C5.9744 9.37065 5.99579 9.29868 5.95758 9.24196C5.89303 9.14611 5.8603 9.04541 5.8603 8.94267C5.8603 8.61268 6.17981 8.29467 6.5864 8.29467C6.97321 8.29467 7.3125 8.59748 7.3125 8.94267C7.3125 9.0102 7.37751 9.06494 7.45772 9.06494C7.53792 9.06494 7.60294 9.0102 7.60294 8.94267C7.60294 8.45887 7.13742 8.05014 6.5864 8.05014C6.53778 8.05014 6.48942 8.05345 6.44154 8.05972C6.44154 8.05651 6.44118 8.05338 6.44118 8.05014C6.44118 7.77727 6.70427 7.56107 7.02206 7.56107C7.17718 7.56107 7.3231 7.61195 7.43292 7.70431C7.48965 7.75203 7.58159 7.75198 7.63829 7.70422C7.69497 7.65644 7.69492 7.57903 7.63814 7.53131C7.50566 7.41989 7.33809 7.34883 7.15649 7.32528C7.28456 7.16523 7.49752 7.03533 7.74812 7.03533C8.13493 7.03533 8.47422 7.33813 8.47422 7.68334L8.47426 8.64167ZM10.943 10.8133C11.1717 10.8133 11.3884 10.7412 11.5626 10.621C11.6319 10.7162 11.6691 10.8247 11.6691 10.9356C11.6691 11.115 11.5726 11.2855 11.4044 11.4033C11.3619 11.4331 11.3432 11.4806 11.3561 11.5259C11.3715 11.5797 11.3787 11.6253 11.3787 11.6692C11.3787 12.0487 10.971 12.3554 10.6034 12.3131C10.5932 12.3119 10.5829 12.3108 10.5727 12.3098C10.5104 12.3039 10.4509 12.3321 10.4246 12.3798C10.2818 12.6389 9.97222 12.8063 9.63602 12.8063C9.16372 12.8063 8.7647 12.4535 8.7647 12.036C8.7647 11.6315 9.15558 11.3024 9.63602 11.3024C9.71621 11.3024 9.78124 11.2477 9.78124 11.1801C9.78124 11.1126 9.71621 11.0579 9.63602 11.0579C9.28928 11.0579 8.97775 11.1866 8.7647 11.3901V9.06494C8.7647 8.93011 8.89499 8.82041 9.05514 8.82041C9.13533 8.82041 9.20036 8.76567 9.20036 8.69814C9.20036 8.63062 9.13533 8.57588 9.05514 8.57588C8.94938 8.57588 8.85021 8.59992 8.7647 8.64167V7.68334C8.7647 7.33813 9.10399 7.03533 9.4908 7.03533C9.74139 7.03533 9.95434 7.16523 10.0824 7.32527C9.90083 7.34882 9.73328 7.41988 9.60078 7.5313C9.54402 7.57902 9.54397 7.65643 9.60063 7.70421C9.65731 7.75199 9.74928 7.75203 9.806 7.70431C9.91586 7.61195 10.0618 7.56107 10.2169 7.56107C10.5363 7.56107 10.7978 7.77855 10.7978 8.05014C10.7978 8.05336 10.7975 8.05651 10.7974 8.05972C10.7495 8.05345 10.7012 8.05014 10.6526 8.05014C10.1015 8.05014 9.63601 8.45887 9.63601 8.94267C9.63601 9.0102 9.70104 9.06494 9.78123 9.06494C9.86142 9.06494 9.92645 9.0102 9.92645 8.94267C9.92645 8.59748 10.2657 8.29467 10.6526 8.29467C11.0589 8.29467 11.3787 8.61252 11.3787 8.94267C11.3787 9.04541 11.3459 9.14611 11.2814 9.24196C11.2432 9.29868 11.2646 9.37065 11.33 9.40555C11.5423 9.5188 11.6691 9.71142 11.6691 9.9208C11.6691 10.2672 11.3359 10.5688 10.943 10.5688C10.8628 10.5688 10.7978 10.6235 10.7978 10.6911C10.7978 10.7586 10.8628 10.8133 10.943 10.8133H10.943ZM7.89338 7.8056C7.81322 7.8056 7.74816 7.86038 7.74816 7.92787C7.74816 7.99536 7.81322 8.05014 7.89338 8.05014C7.97354 8.05014 8.0386 7.99536 8.0386 7.92787C8.0386 7.86038 7.97354 7.8056 7.89338 7.8056V7.8056ZM9.34558 7.8056C9.26542 7.8056 9.20036 7.86038 9.20036 7.92787C9.20036 7.99536 9.26542 8.05014 9.34558 8.05014C9.42574 8.05014 9.4908 7.99536 9.4908 7.92787C9.4908 7.86038 9.42574 7.8056 9.34558 7.8056V7.8056ZM16.9667 5.6019C16.8913 5.45303 16.6838 5.3972 16.5328 5.47164L14.6087 6.4951C14.4578 6.56953 14.4012 6.77423 14.4766 6.92309C14.5332 7.03474 14.6464 7.09057 14.7596 7.09057C14.8162 7.09057 14.8728 7.07196 14.9105 7.05335L16.8347 6.02989C16.9856 5.95546 17.0422 5.75076 16.9667 5.6019ZM2.38461 6.4951L0.479317 5.47164C0.328403 5.3972 0.120895 5.45303 0.0454382 5.6019C-0.0488838 5.75076 0.00770906 5.95546 0.177489 6.02989L2.08278 7.05335C2.13937 7.07196 2.1771 7.09057 2.2337 7.09057C2.34688 7.09057 2.46007 7.03474 2.51666 6.92309C2.59212 6.77423 2.53553 6.56953 2.38461 6.4951ZM4.66719 4.52261C4.72379 4.52261 4.78038 4.504 4.83697 4.46678C4.98789 4.37374 5.02562 4.16905 4.93129 4.02018L3.76171 2.21517C3.66738 2.0663 3.45988 2.02908 3.30896 2.12213C3.15805 2.21517 3.12032 2.41986 3.21464 2.56873L4.38423 4.37374C4.45969 4.48539 4.55401 4.52261 4.66719 4.52261V4.52261ZM13.8352 2.23378C13.6843 2.12213 13.4957 2.17795 13.4014 2.30821L12.1941 4.09462C12.0809 4.24348 12.1186 4.44818 12.2695 4.54122C12.3261 4.57843 12.3827 4.59704 12.4393 4.59704C12.5525 4.59704 12.6468 4.54122 12.7034 4.44818L13.9107 2.66177C14.0239 2.53151 13.9862 2.32682 13.8352 2.23378ZM8.49665 3.42471C8.68529 3.42471 8.81734 3.27585 8.81734 3.10837V0.949796C8.81734 0.78232 8.66643 0.633453 8.49665 0.633453C8.32687 0.633453 8.17595 0.78232 8.17595 0.949796V3.10837C8.17595 3.27585 8.32687 3.42471 8.49665 3.42471V3.42471ZM9.96806 19.186H7.02523C6.59135 19.186 6.23293 19.5396 6.23293 19.9676C6.23293 20.3956 6.59135 20.7491 7.02523 20.7491H9.96806C10.4019 20.7491 10.7604 20.3956 10.7604 19.9676C10.7604 19.521 10.4019 19.186 9.96806 19.186V19.186ZM9.96806 20.0978H7.02523C6.94977 20.0978 6.87432 20.042 6.87432 19.949C6.87432 19.8559 6.93091 19.8001 7.02523 19.8001H9.96806C10.0435 19.8001 10.119 19.8559 10.119 19.949C10.119 20.042 10.0435 20.0978 9.96806 20.0978ZM10.5906 17.3066H6.40271C5.96883 17.3066 5.61041 17.6601 5.61041 18.0881C5.61041 18.5161 5.96883 18.8697 6.40271 18.8697H10.5717C11.0245 18.8511 11.3829 18.5161 11.3829 18.0881C11.3829 17.6601 11.0245 17.3066 10.5906 17.3066V17.3066ZM10.5906 18.2184H6.40271C6.32725 18.2184 6.2518 18.1626 6.2518 18.0695C6.2518 17.9765 6.30839 17.9207 6.40271 17.9207H10.5717C10.6472 17.9207 10.7226 17.9765 10.7226 18.0695C10.7226 18.1626 10.666 18.2184 10.5906 18.2184V18.2184ZM8.51551 4.96921C5.62927 4.96921 3.27123 7.29526 3.27123 10.1423C3.27123 11.631 3.93149 13.0639 5.04448 14.0315C5.87451 14.8503 5.79905 16.5995 5.78019 16.6181C5.78019 16.7111 5.79905 16.7855 5.87451 16.86C5.9311 16.9158 6.02542 16.953 6.10088 16.953H10.9113C11.0056 16.953 11.0811 16.9158 11.1377 16.86C11.1942 16.8042 11.232 16.7111 11.232 16.6181C11.232 16.5995 11.1377 14.8503 11.9677 14.0315C11.9865 14.0129 12.0054 13.9943 12.0243 13.9757C13.1184 12.9894 13.7598 11.5938 13.7598 10.1423C13.7598 7.29526 11.4018 4.96921 8.51551 4.96921V4.96921ZM11.5338 13.5477C11.5149 13.5663 11.4772 13.6035 11.4772 13.6221C10.7415 14.4037 10.6095 15.6877 10.5906 16.3017H6.42157C6.40271 15.6877 6.27066 14.3478 5.47836 13.5477C4.47855 12.6917 3.89376 11.4449 3.89376 10.1237C3.89376 7.6116 5.94997 5.58329 8.49665 5.58329C11.0433 5.58329 13.0995 7.6116 13.0995 10.1237C13.0995 11.4449 12.5336 12.6917 11.5338 13.5477V13.5477Z" fill="url(#paint0_linear)"/>
<defs>
<linearGradient id="paint0_linear" x1="8.53929" y1="-1.76544" x2="8.62048" y2="24.0028" gradientUnits="userSpaceOnUse">
<stop stop-color="#8D85E7"/>
<stop offset="1" stop-color="#FF81FF"/>
</linearGradient>
</defs>
</svg>
