<?xml version="1.0" encoding="UTF-8" standalone="no"?>
<!-- Generator: Adobe Illustrator 19.0.0, SVG Export Plug-In . SVG Version: 6.00 Build 0)  -->

<svg
   xmlns:dc="http://purl.org/dc/elements/1.1/"
   xmlns:cc="http://creativecommons.org/ns#"
   xmlns:rdf="http://www.w3.org/1999/02/22-rdf-syntax-ns#"
   xmlns:svg="http://www.w3.org/2000/svg"
   xmlns="http://www.w3.org/2000/svg"
   xmlns:xlink="http://www.w3.org/1999/xlink"
   xmlns:sodipodi="http://sodipodi.sourceforge.net/DTD/sodipodi-0.dtd"
   xmlns:inkscape="http://www.inkscape.org/namespaces/inkscape"
   version="1.1"
   id="Capa_1"
   x="0px"
   y="0px"
   viewBox="0 0 432.4 432.4"
   style="enable-background:new 0 0 432.4 432.4;"
   xml:space="preserve"
   sodipodi:docname="speakleany_two.svg"
   inkscape:version="0.92.5 (2060ec1f9f, 2020-04-08)"><metadata
   id="metadata1890"><rdf:RDF><cc:Work
       rdf:about=""><dc:format>image/svg+xml</dc:format><dc:type
         rdf:resource="http://purl.org/dc/dcmitype/StillImage" /><dc:title></dc:title></cc:Work></rdf:RDF></metadata><defs
   id="defs1888"><linearGradient
     inkscape:collect="always"
     id="linearGradient2215"><stop
       style="stop-color:#8d85e7;stop-opacity:1"
       offset="0"
       id="stop2245" /><stop
       style="stop-color:#ff81ff;stop-opacity:1"
       offset="1"
       id="stop2247" /></linearGradient><linearGradient
     inkscape:collect="always"
     xlink:href="#linearGradient2215"
     id="linearGradient2219"
     gradientUnits="userSpaceOnUse"
     x1="-1149.6436"
     y1="-750.02496"
     x2="-1141.7566"
     y2="1357.5277"
     gradientTransform="matrix(1,0,0,0.9864344,-4.7623192,-5.4827698)" /></defs><sodipodi:namedview
   pagecolor="#ffffff"
   bordercolor="#666666"
   borderopacity="1"
   objecttolerance="10"
   gridtolerance="10"
   guidetolerance="10"
   inkscape:pageopacity="0"
   inkscape:pageshadow="2"
   inkscape:window-width="1366"
   inkscape:window-height="711"
   id="namedview1886"
   showgrid="false"
   inkscape:zoom="0.68192306"
   inkscape:cx="137.8143"
   inkscape:cy="212.74069"
   inkscape:window-x="0"
   inkscape:window-y="0"
   inkscape:window-maximized="1"
   inkscape:current-layer="g2071" />
<g
   id="g1853">
	<g
   id="g1851">
		<g
   id="g1849">
			
			
			
			
			
			
			
			
			
		<g
   id="g2154"
   transform="matrix(0.30792583,0,0,0.26281809,576.90398,148.4871)"><g
     id="g2025">
	<g
   id="g2023">
		
	</g>
</g><g
     id="g2031">
	<g
   id="g2029">
		
	</g>
</g><g
     id="g2037">
	<g
   id="g2035">
		
	</g>
</g><g
     id="g2043">
	<g
   id="g2041">
		
	</g>
</g><g
     id="g2049">
	<g
   id="g2047">
		
	</g>
</g><g
     id="g2055">
	<g
   id="g2053">
		
	</g>
</g><g
     id="g2061">
	<g
   id="g2059">
		
	</g>
</g><g
     id="g2067">
	<g
   id="g2065">
		
	</g>
</g><g
     id="g2073">
	<g
   id="g2071">
		<path
   id="path2069"
   d="m -1010.5841,294.77985 c -15.282,-26.59329 -44.336,-44.99029 -78.3,-44.99029 -5.522,0 -10,4.41627 -10,9.86434 0,5.44808 4.478,9.86435 10,9.86435 26.301,0 48.964,14.21551 60.899,34.98981 2.727,4.74574 8.834,6.40098 13.631,3.71787 4.805,-2.68606 6.492,-8.70627 3.77,-13.44608 z m 1.7,33.92446 c -37.944,0 -70,32.97651 -70,72.00971 0,5.44808 4.478,9.86435 10,9.86435 5.522,0 10,-4.41627 10,-9.86435 0,-27.85 23.364,-52.28102 50,-52.28102 5.5219,0 9.99994,-4.41627 9.99994,-9.86434 0,-5.44808 -4.47804,-9.86435 -9.99994,-9.86435 z m -20,-121.33143 c -13.386,0 -24.75,-8.69542 -28.6,-20.65889 33.193,-5.38791 58.59994,-33.87613 58.59994,-68.1202 0,-5.44808 -4.47804,-9.86435 -9.99994,-9.86435 -5.522,0 -10,4.41627 -10,9.86435 0,27.19599 -22.43,49.32172 -50,49.32172 -12.316,0 -24.153,-4.46066 -33.333,-12.56027 -4.115,-3.63206 -10.438,-3.28582 -14.12,0.77533 -3.683,4.06017 -3.33,10.29641 0.786,13.92846 10.569,9.32673 23.659,15.19701 37.565,16.99133 4.412,22.77874 24.745,40.05121 49.102,40.05121 5.522,0 10,-4.41627 10,-9.86434 0,-5.44808 -4.478,-9.86435 -10,-9.86435 z m -180,42.41668 c -33.886,0 -62.98,18.33288 -78.3,44.9893 -2.723,4.73982 -1.036,10.76003 3.768,13.44609 4.805,2.68606 10.907,1.02293 13.631,-3.71689 11.935,-20.77036 34.581,-34.98981 60.901,-34.98981 5.523,0 10,-4.41627 10,-9.86435 0,-5.44807 -4.477,-9.86434 -10,-9.86434 z m -80,78.91475 c -5.523,0 -10,4.41627 -10,9.86435 0,5.44807 4.477,9.86434 10,9.86434 26.636,0 50,24.43102 50,52.28102 0,5.44808 4.477,9.86435 10,9.86435 5.523,0 10,-4.41627 10,-9.86435 0,-39.0332 -32.056,-72.00971 -70,-72.00971 z m 107.453,-172.57374 c -3.682,-4.06016 -10.003,-4.40739 -14.12,-0.77533 -32.068,28.29587 -83.333,5.68186 -83.333,-36.76145 0,-5.44808 -4.477,-9.86435 -10,-9.86435 -5.523,0 -10,4.41627 -10,9.86435 0,34.24407 25.407,62.73229 58.6,68.1202 -3.85,11.96347 -15.214,20.65889 -28.6,20.65889 -5.523,0 -10,4.41627 -10,9.86435 0,5.44807 4.477,9.86434 10,9.86434 24.357,0 44.69,-17.27247 49.102,-40.05121 13.907,-1.79432 26.996,-7.6646 37.565,-16.99133 4.116,-3.63205 4.468,-9.86829 0.786,-13.92846 z m 249.66994,83.67825 c 8.583,-12.70725 12.877,-28.56221 12.877,-42.30028 0,-20.71118 -9.327,-39.95356 -25.332,-53.00211 3.542,-8.34918 5.332,-17.03276 5.332,-25.91264 0,-27.477139 -16.256,-53.073139 -40.425,-65.025765 3.667,-30.001415 -16.151,-57.5012338 -45.51994,-64.515769 -11.495,-26.212521 -37.08,-44.07093 -64.055,-44.07093 -25.11,0 -47.631,14.447319 -60,35.527422 -12.37,-21.080103 -34.891,-35.527422 -60,-35.527422 -26.977,0 -52.562,17.858409 -64.055,44.071917 -29.545,7.0589242 -49.177,34.695857 -45.52,64.514782 -24.168,11.95164 -40.425,37.548626 -40.425,65.025765 0,8.87988 1.79,17.56346 5.332,25.91264 -16.005,13.04954 -25.332,32.29093 -25.332,53.00211 0,13.81008 4.33,29.64432 12.877,42.29929 -8.352,11.63006 -12.877,25.41351 -12.877,39.57476 0,18.36347 7.548,35.85689 20.899,48.84626 -6.864,40.92914 26.226,82.34952 69.101,82.34952 0.31,0 0.615,-0.005 0.914,-0.0138 14.215,24.18934 40.601,39.47118 69.086,39.47118 29.688,0 56.216,-17.57826 70,-42.90397 13.784,25.32571 40.312,42.90397 70,42.90397 28.485,0 54.871,-15.28184 69.086,-39.47118 0.3,0.009 0.604,0.0138 0.914,0.0138 37.94394,0 69.99994,-32.9765 69.99994,-72.00971 0,-3.3233 -0.296,-6.7413 -0.899,-10.33981 13.351,-12.98937 20.899,-30.48181 20.899,-48.84626 0,-14.16125 -4.525,-27.9447 -12.877,-39.57377 z M -1158.8841,94.308752 c -5.888,-3.368673 -12.717,-5.308003 -20,-5.308003 -5.523,0 -10,4.416266 -10,9.864344 0,5.448077 4.477,9.864347 10,9.864347 11.028,0 20,8.85029 20,19.72869 v 187.58924 c -14.671,-16.41525 -36.123,-26.80043 -60,-26.80043 -5.523,0 -10,4.41626 -10,9.86434 0,5.44808 4.477,9.86434 10,9.86434 33.084,0 60,26.55087 60,59.18607 0,33.68575 -27.477,62.14537 -60,62.14537 -23.152,0 -44.465,-13.50528 -54.299,-34.40684 -1.813,-3.85202 -5.919,-6.12378 -10.2,-5.64832 -0.707,0.0799 -1.41,0.17263 -2.113,0.26732 -28.46,3.83921 -60.51,-27.95061 -51.834,-63.51355 0.891,-3.65276 -0.399,-7.48605 -3.326,-9.889 -11.584,-9.50824 -18.228,-23.2621 -18.228,-37.73408 0,-8.94794 2.565,-17.70452 7.338,-25.38293 11.994,9.69665 26.913,15.51859 42.662,15.51859 5.523,0 10,-4.41627 10,-9.86435 0,-5.44807 -4.477,-9.86434 -10,-9.86434 -27.139,0 -50,-24.43398 -50,-52.28102 0,-16.89269 8.729,-32.43298 23.352,-41.57032 4.505,-2.81528 5.978,-8.62242 3.347,-13.19849 -4.445,-7.73266 -6.699,-15.85694 -6.699,-24.14594 0,-26.623873 22.002,-52.281032 50,-52.281032 26.636,0 50,24.431021 50,52.281032 0,5.44807 4.477,9.86434 10,9.86434 5.523,0 10,-4.41627 10,-9.86434 0,-39.033218 -32.056,-72.00972 -70,-72.00972 -3.348,0 -6.678,0.267324 -9.975,0.773364 0,-0.259432 -0.025,-0.511959 -0.025,-0.773364 0,-22.014257 18.117,-39.4573759 40,-39.4573759 10.682,0 20.73,4.1045539 28.292,11.5560789 3.907,3.850053 10.238,3.846108 14.142,-0.0069 3.903,-3.854986 3.9,-10.1001017 -0.01,-13.9501553 -9.123,-8.9893765 -20.662,-14.7225335 -33.167,-16.6224067 8.819,-12.913412 23.484,-23.393292 40.74,-23.393292 26.636,0 50,24.430035 50,52.281024 z m 169.99994,175.209498 c 15.75,0 30.669,-5.82292 42.663,-15.51563 4.772,7.67742 7.337,16.43301 7.337,25.37997 0,14.47198 -6.644,28.22584 -18.227,37.73408 -2.928,2.40295 -4.217,6.23722 -3.326,9.889 1.06,4.34327 1.553,8.01774 1.553,11.562 0,30.61892 -28.075,55.36462 -53.38694,51.95155 -0.703,-0.0947 -1.407,-0.1884 -2.114,-0.26732 -4.287,-0.47842 -8.388,1.7963 -10.199,5.64832 -9.834,20.90156 -31.149,34.40684 -54.3,34.40684 -32.523,0 -60,-28.45962 -60,-62.14537 0,-32.6352 26.916,-59.18607 60,-59.18607 5.522,0 10,-4.41626 10,-9.86434 0,-5.44808 -4.478,-9.86434 -10,-9.86434 -23.877,0 -45.329,10.38518 -60,26.80043 V 128.45813 c 0,-10.8784 8.972,-19.72869 20,-19.72869 5.522,0 10,-4.41627 10,-9.864347 0,-5.448078 -4.478,-9.864344 -10,-9.864344 -7.283,0 -14.112,1.93933 -20,5.308003 V 16.991038 c 0,-27.850989 23.364,-52.281024 50,-52.281024 17.256,0 31.92,10.47988 40.739,23.392306 -12.504,1.8998732 -24.042,7.6330302 -33.166,16.6224062 -3.908,3.8500536 -3.912,10.0951698 -0.01,13.9501548 3.903,3.854986 10.236,3.857945 14.142,0.0079 7.565,-7.451525 17.612,-11.5560789 28.294,-11.5560789 21.993,0 39.99994,17.5457089 39.99994,39.4573759 0,0.260419 -0.02,0.513932 -0.025,0.773364 -3.29704,-0.50604 -6.62694,-0.773364 -9.97494,-0.773364 -37.944,0 -70,32.976502 -70,72.009722 0,5.44807 4.478,9.86434 10,9.86434 5.522,0 10,-4.41627 10,-9.86434 0,-27.850013 23.364,-52.281034 50,-52.281034 27.98194,0 49.99994,25.644335 49.99994,52.281034 0,8.289 -2.254,16.41328 -6.699,24.14594 -2.63,4.57607 -1.157,10.38321 3.348,13.19849 14.622,9.13734 23.351,24.67763 23.351,41.57032 0,27.94667 -22.941,52.28102 -50,52.28102 -5.522,0 -10,4.41627 -10,9.86434 0,5.44808 4.478,9.86435 10,9.86435 z M -1198.8841,26.855382 c -5.52,0 -10,4.419226 -10,9.864344 0,5.445118 4.48,9.864344 10,9.864344 5.52,0 10,-4.419226 10,-9.864344 0,-5.445118 -4.48,-9.864344 -10,-9.864344 z m 100,0 c -5.52,0 -10,4.419226 -10,9.864344 0,5.445118 4.48,9.864344 10,9.864344 5.52,0 10,-4.419226 10,-9.864344 0,-5.445118 -4.48,-9.864344 -10,-9.864344 z m 524.7989,-177.794252 c -5.19605,-12.01055 -19.48521,-16.51451 -29.87732,-10.50924 l -132.49944,82.572541 c -10.39212,6.005276 -14.28916,22.519784 -9.0931,34.530335 3.89704,9.007912 11.69113,13.511869 19.48521,13.511869 3.89704,0 7.79409,-1.501318 10.39211,-3.002638 l 132.49944,-82.572537 c 10.39212,-6.00527 14.28916,-22.51978 9.0931,-34.53033 z m -1004.1379,72.063301 -131.2004,-82.572541 c -10.3921,-6.00527 -24.6813,-1.50131 -29.8773,10.50924 -6.4951,12.01055 -2.5981,28.52506 9.0931,34.53033 l 131.2004,82.572537 c 3.897,1.50132 6.495,3.002638 10.3921,3.002638 7.7941,0 15.5882,-4.503957 19.4852,-13.511869 5.1961,-12.010551 1.299,-28.525059 -9.0931,-34.530335 z m 157.1807,-159.139801 c 3.8971,0 7.7941,-1.50131 11.6911,-4.50395 10.3922,-7.5066 12.9902,-24.02111 6.4951,-36.03166 l -80.5389,-145.62793 c -6.495,-12.01055 -20.7842,-15.01319 -31.1763,-7.50659 -10.3921,7.50659 -12.9901,24.0211 -6.4951,36.03165 l 80.5389,145.62793 c 5.1961,9.00791 11.6911,12.01055 19.4852,12.01055 z m 631.32086,-184.66222 c -10.39211,-9.00791 -23.38226,-4.50396 -29.87733,6.00528 l -83.1369,144.12661 c -7.79408,12.01055 -5.19606,28.52505 5.19606,36.03165 3.89704,3.00264 7.79408,4.50396 11.69112,4.50396 7.79409,0 14.28916,-4.50396 18.1862,-12.01056 l 83.13691,-144.1266 c 7.79408,-10.50924 5.19605,-27.02375 -5.19606,-34.53034 z m -367.62096,96.0844 c 12.9901,0 22.0832,-12.01054 22.0832,-25.52241 v -174.15299 c 0,-13.51187 -10.3921,-25.52242 -22.0832,-25.52242 -11.6911,0 -22.0833,12.01055 -22.0833,25.52242 v 174.15299 c 0,13.51187 10.3922,25.52241 22.0833,25.52241 z m 101.3231,1271.61708 h -202.6462 c -29.8773,0 -54.5586,28.52512 -54.5586,63.05541 0,34.5304 24.6813,63.0554 54.5586,63.0554 h 202.6462 c 29.8773,0 54.5586,-28.525 54.5586,-63.0554 0,-36.03164 -24.6813,-63.05541 -54.5586,-63.05541 z m 0,73.56461 h -202.6462 c -5.1961,0 -10.3921,-4.504 -10.3921,-12.0105 0,-7.50657 3.897,-12.01053 10.3921,-12.01053 h 202.6462 c 5.196,0 10.3921,4.50396 10.3921,12.01053 0,7.5065 -5.1961,12.0105 -10.3921,12.0105 z m 42.8674,-225.1978 h -288.3811 c -29.8773,0 -54.5586,28.52506 -54.5586,63.0554 0,34.53033 24.6813,63.05539 54.5586,63.05539 h 287.0821 c 31.17636,-1.50131 55.85762,-28.52506 55.85762,-63.05539 0,-34.53034 -24.68126,-63.0554 -54.55862,-63.0554 z m 0,73.56463 h -288.3811 c -5.196,0 -10.3921,-4.50396 -10.3921,-12.01055 0,-7.50659 3.897,-12.01056 10.3921,-12.01056 h 287.0821 c 5.1961,0 10.3921,4.50397 10.3921,12.01056 0,7.50659 -3.897,12.01055 -9.0931,12.01055 z m -142.8915,-1068.93904 c -198.7492,0 -361.1259,187.664853 -361.1259,417.36665 0,120.10551 45.4655,235.70706 122.1073,313.77565 57.1566,66.05802 51.9606,207.182 50.6615,208.68332 0,7.50659 1.2991,13.51186 6.4951,19.51715 3.8971,4.50395 10.3921,7.50659 15.5882,7.50659 h 331.24857 c 6.49507,0 11.69113,-3.00264 15.58817,-7.50659 3.89704,-4.50396 6.49507,-12.01056 6.49507,-19.51715 0,-1.50132 -6.49507,-142.6253 50.66155,-208.68332 1.29902,-1.50133 2.59803,-3.00264 3.89704,-4.50397 75.34282,-79.5699 119.5093,-192.16881 119.5093,-309.27168 0,-229.701797 -162.37676,-417.36665 -361.1259,-417.36665 z m 207.84224,692.108 c -1.29902,1.50132 -3.89705,4.50396 -3.89705,6.00528 -50.66159,63.05539 -59.75459,166.64639 -61.05369,216.18992 h -287.0821 c -1.299,-49.54353 -10.3921,-157.63848 -64.9507,-222.1952 -68.8477,-69.06067 -109.1172,-169.64903 -109.1172,-276.24268 0,-202.678046 141.5926,-366.32179 316.9595,-366.32179 175.36687,0 316.95941,163.643744 316.95941,366.32179 0,106.59365 -38.97043,207.18201 -107.81817,276.24268 z"
   inkscape:connector-curvature="0"
   style="fill:url(#linearGradient2219);fill-opacity:1;stroke-width:0.99319404" />
	</g>
</g><g
     id="g2075">
</g><g
     id="g2077">
</g><g
     id="g2079">
</g><g
     id="g2081">
</g><g
     id="g2083">
</g><g
     id="g2085">
</g><g
     id="g2087">
</g><g
     id="g2089">
</g><g
     id="g2091">
</g><g
     id="g2093">
</g><g
     id="g2095">
</g><g
     id="g2097">
</g><g
     id="g2099">
</g><g
     id="g2101">
</g><g
     id="g2103">
</g></g></g>
	</g>
</g>
<g
   id="g1855">
</g>
<g
   id="g1857">
</g>
<g
   id="g1859">
</g>
<g
   id="g1861">
</g>
<g
   id="g1863">
</g>
<g
   id="g1865">
</g>
<g
   id="g1867">
</g>
<g
   id="g1869">
</g>
<g
   id="g1871">
</g>
<g
   id="g1873">
</g>
<g
   id="g1875">
</g>
<g
   id="g1877">
</g>
<g
   id="g1879">
</g>
<g
   id="g1881">
</g>
<g
   id="g1883">
</g>
</svg>