<svg width="100" height="100" viewBox="0 0 100 100" fill="none" xmlns="http://www.w3.org/2000/svg">
<path d="M97.8049 49.8487C97.8652 70.5727 85.5902 88.3738 68.0647 96.0138C67.6832 96.18 67.2567 96.194 66.8615 96.0668C61.2402 94.2524 55.1969 93.2656 48.9026 93.2656C42.603 93.2656 36.5552 94.254 30.9292 96.0715C30.544 96.1956 30.1274 96.1823 29.7551 96.02C22.5026 92.8623 16.1473 87.9612 11.1935 81.8369C10.7708 81.3135 10.812 80.549 11.2835 80.0708C20.2481 70.9784 25.7893 58.3631 25.7489 44.4241C25.7168 33.387 22.2248 23.2196 16.3227 14.9852C15.7604 14.2004 15.8878 13.106 16.602 12.4632C25.1927 4.72731 36.4568 0.0266344 48.7989 0.000112227C75.8787 -0.0576126 97.724 22.1602 97.8049 49.8487V49.8487Z" fill="#EC74B6"/>
<path d="M29.7402 75.3062H68.0643V96.0138C62.1797 98.5794 55.7031 99.9999 48.9023 99.9999C42.1014 99.9999 35.6256 98.5794 29.7402 96.0138V75.3062Z" fill="#015AAD"/>
<path d="M35.9285 90.9285V98.2159C33.8052 97.62 31.7384 96.8851 29.7402 96.0146V75.3062H68.0643V86.8472H39.9202C37.7153 86.8472 35.9285 88.6742 35.9285 90.9285V90.9285Z" fill="#004B92"/>
<path d="M99.9998 18.5712V75.7142C99.9998 79.0958 97.3189 81.8369 94.0115 81.8369H13.3884C6.39683 73.1891 2.19531 62.0965 2.19531 50.0001C2.19531 35.0376 8.62538 21.6119 18.8122 12.4492H94.0115C97.3189 12.4492 99.9998 15.1904 99.9998 18.5712V18.5712Z" fill="#528ED7"/>
<path d="M19.0848 81.8369H11.1922C9.53813 79.7908 8.04048 77.6082 6.71754 75.3078C2.44812 67.8846 3.96484 27.446 10.6024 18.9113C12.4159 16.5789 14.4294 14.4158 16.6159 12.4492H23.1956C15.9507 22.7071 11.576 35.9893 11.576 50.504C11.576 62.0217 14.3286 72.7655 19.0848 81.8369V81.8369Z" fill="#0573CD"/>
<path d="M41.501 20.9526V73.2654C41.501 74.3926 40.6076 75.306 39.5051 75.306H6.72075C2.45133 67.8821 0 59.2343 0 49.9999C0 38.249 3.96653 27.4466 10.6026 18.9111H39.5051C40.6076 18.9111 41.501 19.8254 41.501 20.9526Z" fill="#FCF498"/>
<path d="M91.6173 75.306H39.7212C38.6188 75.306 37.7246 74.3926 37.7246 73.2654V20.9526C37.7246 19.8254 38.6188 18.9111 39.7212 18.9111H91.6173C92.7197 18.9111 93.6131 19.8254 93.6131 20.9526V73.2654C93.6131 74.3926 92.7197 75.306 91.6173 75.306Z" fill="#FDF7BD"/>
<path d="M85.629 33.4691V35.5097C85.629 36.0729 85.1827 36.53 84.631 36.53H51.6971C51.1455 36.53 50.6992 36.0729 50.6992 35.5097V33.4691C50.6992 32.9051 51.1455 32.4487 51.6971 32.4487H84.631C85.1827 32.4487 85.629 32.9051 85.629 33.4691V33.4691ZM81.6373 40.6113H54.6909C54.1401 40.6113 53.693 41.0685 53.693 41.6325V43.6731C53.693 44.2363 54.1401 44.6934 54.6909 44.6934H81.6373C82.1881 44.6934 82.6352 44.2363 82.6352 43.6731V41.6325C82.6352 41.0685 82.1881 40.6113 81.6373 40.6113V40.6113Z" fill="#FDC273"/>
<path d="M45.7082 46.7348C45.7082 58.0059 36.7719 67.1428 25.7482 67.1428C14.7244 67.1428 5.78809 58.0059 5.78809 46.7348C5.78809 35.4636 14.7244 26.3267 25.7482 26.3267C36.7719 26.3267 45.7082 35.4636 45.7082 46.7348V46.7348Z" fill="#FDD194"/>
<path d="M76.6461 55.9183V59.9996C76.6461 60.5636 76.1998 61.0199 75.6482 61.0199H60.6785C60.1269 61.0199 59.6806 60.5636 59.6806 59.9996V55.9183C59.6806 55.3551 60.1269 54.898 60.6785 54.898H75.6482C76.1998 54.898 76.6461 55.3551 76.6461 55.9183V55.9183ZM24.2381 46.0271L38.9049 39.5073C39.7045 39.1516 39.7045 37.9916 38.9049 37.6359L24.2381 31.1161C23.2226 30.6644 22.0698 30.6644 21.0544 31.1161L6.38833 37.6359C5.588 37.9916 5.588 39.1516 6.38833 39.5073L21.0544 46.0271C22.0698 46.4779 23.2226 46.4779 24.2381 46.0271ZM32.2498 46.8157L24.9057 49.8751C23.4569 50.4781 21.8348 50.4781 20.3868 49.8751L13.0427 46.8157C12.3858 46.5419 11.6679 47.0357 11.6679 47.7604V59.9996C11.6679 60.5636 12.115 61.0199 12.6658 61.0199H32.6259C33.1775 61.0199 33.6238 60.5636 33.6238 59.9996V47.7604C33.6246 47.0357 32.9059 46.5419 32.2498 46.8157ZM39.413 53.1483V44.215C39.413 43.5145 38.7264 43.03 38.0855 43.2781C37.7056 43.4255 37.4546 43.7968 37.453 44.2118L37.4279 53.142C36.259 53.8371 35.4206 55.7311 35.4206 57.9589H41.4089C41.4089 55.7381 40.5758 53.8488 39.413 53.1483Z" fill="#FD7D43"/>
</svg>
